<svg xmlns="http://www.w3.org/2000/svg" width="3766.336" height="2102.5" viewBox="0 0 3766.336 2102.5">
  <g id="new-map-nepal" transform="translate(16468.5 -10278.25)">
    <g id="Group_535" data-name="Group 535">
      <path id="Path_478" data-name="Path 478" d="M1113,854.46a2.46,2.46,0,1,0,2.46-2.46,2.46,2.46,0,0,0-2.46,2.46" transform="translate(-15264.964 11407.451)" fill="#45a0d6" stroke="rgba(51,136,255,0)" stroke-linecap="round" stroke-linejoin="round" stroke-width="3" fill-rule="evenodd"/>
      <path id="Path_496" data-name="Path 496" d="M1244.072,825.85l2.46,9.841-9.841,14.761,7.381,2.46v4.92h-9.841l9.841,4.92-2.46,4.92h-4.92l2.46,4.92-9.841,9.841v17.221l4.92,4.92h-4.92l4.92,9.841v17.221h-4.92v7.38l4.92,4.92-34.443-2.46-7.381,2.46v7.381h-24.6v-9.841h4.92l7.38-7.38-22.142-2.46-7.381-4.92h4.92V921.8l-14.761-4.92,4.92-7.381-7.38-12.3-14.761-4.92-9.841,2.46L1094,884.895h4.92l17.221-17.221-2.46-2.46,4.92-4.92h-7.381l2.46-14.761,4.92-4.92,7.381,2.46-2.46-7.381,12.3-22.142v-4.92l-4.92-2.46V786.487l7.381-7.38V754.5l4.92-7.38-7.38-22.142,4.92-4.92-2.46-12.3,7.38-12.3,7.381-2.46,4.92,7.38,9.841-4.92,7.381,2.46,4.92-4.92,14.761,2.46,4.92,17.221,24.6,31.982,12.3,4.92-2.46,2.46,4.92,2.46,22.142-2.46,7.381,2.46,4.92,9.841,2.46-2.46-9.841,24.6v12.3l-7.381,7.38v4.92l-9.841,4.92-4.92,7.38Z" transform="translate(-15292.707 11175.281)" fill="#45a0d6" stroke="#fff" stroke-linecap="round" stroke-linejoin="round" stroke-width="1.5" fill-rule="evenodd"/>
      <path id="Path_497" data-name="Path 497" d="M1410.771,841.868l2.46-2.46-12.3,9.841V864.01l4.92,9.841-2.46,2.46,2.46,4.92h4.92v24.6l-4.92,7.381,4.92,17.221,9.841,4.92,2.46,12.3,4.92,4.92,2.46,22.142-22.142,17.221,2.46,7.381-4.92,7.381-2.46-12.3h-7.381l-24.6-14.761-17.221-4.92-7.381,2.46v4.92l-17.221-2.46-9.841,7.381v9.841l-4.92,4.92-4.92-2.46v4.92h-7.381l-19.681,17.221-9.841,2.46,4.92-9.841-2.46-12.3,9.841-12.3,14.761-7.381v-4.92l-4.92-2.46,4.92-4.92-9.841-9.841,2.46-17.221-4.92-12.3,7.38-7.381v-4.92h4.92l-2.46-2.46,7.381-19.682V876.31l-9.841-4.92,2.46-19.682,4.92-4.92,2.46-12.3v-4.92l-4.92-2.46,2.46-24.6,7.381-9.841-7.381-2.46,2.46-4.92h7.381l4.92-12.3-4.92-4.92v-9.841l-14.761-12.3V741l17.221,4.92v12.3l12.3,12.3v9.841l14.761,17.221,49.2,2.46,14.761,9.841,12.3,2.46,7.381,7.38,2.46-2.46v4.92l19.682,9.841,9.841,17.221-14.761,7.38-2.46,7.381-27.062-19.682Z" transform="translate(-15031.334 11245.37)" fill="#45a0d6" stroke="#fff" stroke-linecap="round" stroke-linejoin="round" stroke-width="1.5" fill-rule="evenodd"/>
      <path id="Path_498" data-name="Path 498" d="M1345.328,751.221v7.38l14.761,12.3-2.46,9.841,4.92,4.92-7.381,9.841-7.381,2.46,7.381,4.92-7.381,7.38-2.46,27.062h4.92v7.38l-9.841,34.443,9.841,4.92v22.142l-9.841,29.522-7.38,2.46,4.92,12.3-2.46,19.682,9.841,9.841-4.92,4.92,4.92,2.46v4.92h-4.92l-19.681,17.221v4.92l-9.841-2.46v4.92h-4.92l-7.38-4.92v-4.92l-14.761-2.46-17.221-12.3,2.46-2.46-7.38-14.761,4.92-19.682-2.46-12.3,4.92-14.761-7.38-19.681-17.221-12.3-2.46-9.841,14.761-22.142-2.46-7.38,12.3-22.142,7.38-34.443,24.6-34.443-4.92-7.381v-9.841L1308.425,734l7.381,4.92v7.38l9.841,7.381,9.841-9.841,7.38,7.381Z" transform="translate(-15076.6 11235.148)" fill="#45a0d6" stroke="#fff" stroke-linecap="round" stroke-linejoin="round" stroke-width="1.5" fill-rule="evenodd"/>
      <path id="Path_499" data-name="Path 499" d="M1241.5,727.124v22.142l-4.92,9.841,7.38,17.221-4.92,9.841V805.85l-7.381,12.3v17.221l4.92,7.381-7.381,7.38v9.841l-7.381,4.92,4.92,4.92h-4.92l-9.841,12.3-2.46,7.381h7.38l-2.46,9.841L1199.673,914.1h-4.92l-4.92-2.46V901.8l-9.841-4.92-9.841,2.46-7.381,9.841-7.381-12.3-7.381,7.38-51.664-22.142v-9.841l14.761-14.761-2.46-7.381,7.381-22.142-4.92-4.92v-9.841l4.92-22.142L1086.5,736.965l-61.5-12.3,7.381-9.841h9.841l7.381-4.92-2.46-2.46,4.92-7.381h-4.92l7.381-2.46-2.46-4.92L1059.443,673l4.92,4.92,31.982,4.92,2.46,7.381h29.522l4.92-7.381,9.841,4.92,19.682-2.46,7.381,7.381v4.92h14.761l4.92,9.841,7.381-2.46,7.381,7.38,2.46-2.46,2.46,7.38,12.3,2.46v4.92l12.3-2.46Z" transform="translate(-15393.46 11146.077)" fill="#45a0d6" stroke="#fff" stroke-linecap="round" stroke-linejoin="round" stroke-width="1.5" fill-rule="evenodd"/>
      <path id="Path_500" data-name="Path 500" d="M1276.93,786.425l-9.841,9.841,2.46,7.381-22.142,29.522v4.92l7.381,7.381-2.46,27.062-4.92,4.92,4.92,14.761-2.46,7.38-2.46-2.46-19.681,12.3,4.92,9.841-9.841,4.92-2.46,7.381v4.92l7.381,7.381-4.92,7.38,9.841,4.92-7.381,2.46-4.92,7.38-14.761-4.92-36.9-2.46-7.38-14.761-7.381-4.92,2.46-12.3,4.92-4.92V906.974l-12.3-7.381,4.92-9.841V872.532l-4.92-2.46v-4.92h4.92l-4.92-4.92V845.47l9.841-12.3-2.46-2.46,7.381-4.92-9.841-7.381h9.841v-4.92l-7.381-2.46,9.841-14.761-2.46-12.3,4.92-7.38,9.841-4.92,14.761-44.283,12.3-7.381,31.982,12.3h12.3l2.46,7.381,24.6,4.92v9.841l7.381,2.46,14.761-7.381-4.92,17.221-7.381,4.92-7.381,14.761Z" transform="translate(-15212.397 11214.706)" fill="#45a0d6" stroke="#fff" stroke-linecap="round" stroke-linejoin="round" stroke-width="1.5" fill-rule="evenodd"/>
      <path id="Path_501" data-name="Path 501" d="M1389,931.549l12.3-24.6-4.92-29.522,4.92-19.681-4.92-12.3,2.46-7.381,9.841-2.46-2.46-22.142,4.92-2.46,7.381,4.92,2.46-4.92h4.92v4.92h4.92l-9.841,17.221,7.38,4.92,7.381,19.682,7.381-2.46v4.92h24.6l2.46-7.381,7.381,9.841,12.3-9.841,12.3-2.46,7.381,7.381v4.92l7.381-7.381,12.3-4.92,7.38,2.46,4.92-4.92,7.381,7.38v4.92l17.221-9.841,14.761-14.761-2.46-7.38,4.92-4.92,12.3,17.221h12.3l7.381,17.221,7.381-7.381,2.46,2.46v14.761l-14.761,27.062,4.92,7.381v19.681l-29.522,22.142-2.46,9.841-12.3,9.841,2.46,12.3-17.221,2.46-7.381,7.381-34.443-9.841v4.92l-12.3,14.761-7.38-7.381h-7.381l-4.92-4.92,2.46-2.46-27.062-7.38-7.381-9.841-22.142-4.92L1413.6,936.47l-22.142-2.46Z" transform="translate(-14861.952 11347.583)" fill="#45a0d6" stroke="#fff" stroke-linecap="round" stroke-linejoin="round" stroke-width="1.5" fill-rule="evenodd"/>
      <path id="Path_502" data-name="Path 502" d="M1502.134,857.266v22.142h-4.92l-7.381,7.381,4.92,12.3-4.92,17.221,4.92,34.443-7.381,7.38v12.3l-4.92,4.92-12.3-9.841-27.062-7.381v-4.92l-24.6-7.381v-4.92l-39.363,2.46-12.3,12.3-9.841-4.92-2.46,2.46v-4.92l-12.3-7.381-9.841,4.92V931.071h7.381l2.46-7.381,12.3-7.38-2.46-22.142-4.92-4.92-2.46-12.3-9.841-4.92-4.92-14.761,4.92-7.381V822.823h-4.92L1325,793.3l9.841-12.3v9.841l7.381,2.46,2.46,7.381,2.46-2.46,7.38,7.381,12.3,2.46,9.841,9.841,17.221-12.3,36.9,7.38,2.46-12.3,4.92-2.46-2.46-2.46h14.761l17.221,9.841h9.841l2.46,7.38,7.38,7.381h4.92v4.92l7.381,7.38,9.841-2.46,4.92,4.92V842.5l-9.841,12.3Z" transform="translate(-14955.404 11303.777)" fill="#45a0d6" stroke="#fff" stroke-linecap="round" stroke-linejoin="round" stroke-width="1.5" fill-rule="evenodd"/>
      <path id="Path_503" data-name="Path 503" d="M1398.417,745.221l-9.841,14.761v12.3l4.92,2.46-24.6,34.443-7.38,24.6,2.46,2.46-14.761,29.522v12.3l-12.3,17.221v9.841l-12.3-4.92-7.381-9.841h-4.92l-14.761,12.3-4.92-7.381-4.92,4.92v7.38l-4.92-2.46v4.92l-4.92-2.46-12.3,12.3-4.92-2.46-4.92,9.841-7.381-2.46v4.92l-12.3,7.38-7.381-4.92h-12.3L1201.6,946.957h-9.841l-7.381,9.841-4.92-2.46,2.46-7.38h9.841l-2.46-7.381h-7.381l4.92-4.92L1177,924.815l4.92-12.3,9.841-7.381-4.92-4.92,17.221-14.761,4.92,2.46,2.46-7.38-4.92-12.3,4.92-7.381,2.46-27.062-7.381-7.381v-4.92l22.142-29.522-2.46-7.381,19.682-17.221,7.381-17.221,4.92,4.92,22.142-2.46,9.841,4.92h27.062l29.522-24.6h7.381l4.92-4.92Z" transform="translate(-15171.512 11226.388)" fill="#45a0d6" stroke="#fff" stroke-linecap="round" stroke-linejoin="round" stroke-width="1.5" fill-rule="evenodd"/>
    </g>
    <g id="Group_536" data-name="Group 536">
      <path id="Path_504" data-name="Path 504" d="M1479.461,673.532l-7.381,7.38-2.46,9.841h-4.92l-14.761,19.682,9.841,12.3,2.46,9.841-4.92,7.381,7.381,7.38v4.92h-14.761l-4.92,4.92-12.3-2.46-12.3,17.221,2.46,17.221-9.841,4.92-4.92,9.841,2.46,2.46-14.761,14.761-4.92-9.841-12.3,2.46-12.3-12.3v-9.841l-12.3,2.46L1331.85,786.7l-14.761,19.682-9.841-27.062-14.761-14.761-2.46,2.46-9.841-4.92-4.92-9.841h-24.6l-2.46-2.46,7.381-2.46v-4.92l-12.3-12.3-29.522,7.381-2.46-2.46V725.2l-9.841-9.841v-4.92l4.92-9.841-2.46-2.46,12.3-17.221-2.46-2.46,7.381-17.221-4.92-19.681,4.92-4.92-2.46-7.381,4.92-7.38V607.107l-4.92-9.841L1199,582.5l14.761-12.3h4.92l4.92-4.92-2.46-12.3,22.142-14.761,14.761,2.46,2.46,4.92,9.841-2.46,7.381,7.381v4.92l7.381,2.46v-4.92l9.841-7.381h14.761l12.3-4.92v-4.92h29.522l12.3-14.761,19.681,14.761,9.841,17.221-2.46,7.38,14.761,9.841v27.062h4.92l29.522,29.522-14.761,27.062h4.92l12.3,12.3,36.9,9.841Z" transform="translate(-15139.388 10924.129)" fill="#c86f9f" stroke="#fff" stroke-linecap="round" stroke-linejoin="round" stroke-width="1.5" fill-rule="evenodd"/>
      <path id="Path_505" data-name="Path 505" d="M1410.417,684.345l-14.761,14.761v4.92h-9.841l2.46,14.761-7.381,12.3,2.46,2.46-9.841,7.381,7.38,17.221-2.46,7.38h4.92l-2.46,4.92-12.3,2.46-4.92,19.682h-9.841l-4.92-4.92h-9.841l-4.92,4.92-7.381,19.682,4.92,9.841-7.381,2.46-4.92-4.92-7.381,7.381h-4.92l-4.92-9.841-9.841,4.92-12.3-2.46-14.761,4.92v-4.92l-2.46,2.46-7.381-7.38-7.381,4.92-9.841-14.761-7.381,2.46-2.46-7.381h-4.92l-2.46-4.92-4.92,4.92v-4.92l-7.381-7.381-4.92,4.92-4.92-9.841,4.92-9.841-4.92-4.92,14.761-14.761V723.708l-14.761-4.92L1189,708.947l7.381-2.46,2.46-17.221h4.92l-2.46,2.46,4.92,4.92v-4.92h4.92v-4.92l-7.38-2.46,4.92-4.92,9.841-4.92,4.92,4.92,14.761-14.761-2.46-2.46,4.92-14.761,9.841-4.92V622.841l9.841-9.841,4.92,4.92h24.6l4.92,9.841,9.841,4.92,2.46-2.46,14.761,14.761,9.841,24.6v-4.92l4.92-4.92,2.46,2.46,4.92-9.841,27.062,7.381,7.381-2.46,4.92,4.92-2.46,7.38h4.92l7.381,9.841,12.3-2.46v4.92Z" transform="translate(-15153.989 11058.466)" fill="#c86f9f" stroke="#fff" stroke-linecap="round" stroke-linejoin="round" stroke-width="1.5" fill-rule="evenodd"/>
      <path id="Path_506" data-name="Path 506" d="M1215.124,638.3h4.92l-2.46,2.46,34.443,29.522-7.38,7.38-2.46-7.38-4.92,4.92v9.841l-7.381,7.381,7.381,7.38,12.3,2.46,4.92,4.92,2.46,27.062-17.221,17.221h4.92l-4.92,14.761,4.92,2.46-4.92,4.92-34.443-19.682-7.381,2.46v-4.92l-9.841-4.92h-12.3l-9.841-14.761,2.46-7.38-7.381-2.46,7.381-7.381v-4.92L1161,702.266l7.381-2.46v-9.841l7.381-2.46,7.38-7.381V675.2h4.92V655.522l-4.92-4.92,7.381-7.38-2.46-7.381,4.92-9.841Z" transform="translate(-15194.875 11077.448)" fill="#c86f9f" stroke="#fff" stroke-linecap="round" stroke-linejoin="round" stroke-width="1.5" fill-rule="evenodd"/>
      <path id="Path_507" data-name="Path 507" d="M1259.266,619v14.761l-9.841,4.92-4.92,14.761,2.46,2.46L1232.2,670.664l-4.92-4.92-4.92,4.92-12.3,2.46-22.142-22.142-2.46,2.46,2.46-2.46-4.92-4.92,29.522-24.6,12.3-2.46,4.92,4.92H1244.5Z" transform="translate(-15162.751 11067.227)" fill="#c86f9f" stroke="#fff" stroke-linecap="round" stroke-linejoin="round" stroke-width="1.5" fill-rule="evenodd"/>
      <path id="Path_508" data-name="Path 508" d="M1315.372,631.982h-4.92l-9.841,14.761-14.761,4.92-19.682-4.92-9.841,4.92-2.46-2.46v4.92l-17.221,12.3-2.46-2.46-7.38,7.38v4.92l-19.682-12.3-12.3,27.062,7.381,7.381-2.46,12.3-4.92,4.92,2.46,2.46-7.38,2.46v4.92l-14.761-4.92V700.868l-7.381-2.46,4.92-12.3L1153,671.345l4.92-19.682,7.38-2.46,4.92-9.841,19.682-4.92v-4.92l-7.381-7.381,7.381-2.46,14.761-17.221,56.584,2.46,9.841-4.92,9.841,19.682,22.142-4.92,14.761,4.92,4.92,9.841Z" transform="translate(-15206.557 11039.483)" fill="#c86f9f" stroke="#fff" stroke-linecap="round" stroke-linejoin="round" stroke-width="1.5" fill-rule="evenodd"/>
      <path id="Path_509" data-name="Path 509" d="M1318.735,547.46l9.841,4.92,14.761,19.682v14.761l-4.92,4.92,2.46,12.3-4.92,2.46,4.92,19.681-7.381,17.221,2.46,2.46-12.3,17.221,2.46,2.46-4.92,17.221h-63.965l-17.221,17.221-12.3,4.92-12.3-2.46-31.982,7.381h-4.92l-19.681-14.761h-9.841l-7.38-7.38,2.46-2.46h-4.92v-4.92l-9.841,4.92-2.46-2.46,4.92-9.841h-4.92l-2.46-7.381-7.381-2.46V643.407l12.3-27.062-4.92-4.92,12.3-17.221-12.3-4.92L1117,581.9v-4.92l17.221-2.46,17.221-19.681,22.142-4.92,2.46-4.92h19.681l2.46,2.46-14.761,14.761-2.46,7.381,4.92,4.92,19.682,4.92-2.46,22.142h29.522l14.761,4.92,4.92-9.841h14.761l9.841-14.761,2.46,2.46,7.38-7.381h4.92l9.841-9.841v-4.92l9.841-4.92v-4.92Z" transform="translate(-15259.123 10959.174)" fill="#c86f9f" stroke="#fff" stroke-linecap="round" stroke-linejoin="round" stroke-width="1.5" fill-rule="evenodd"/>
      <path id="Path_510" data-name="Path 510" d="M1443.6,578.947v4.92l-9.841,7.381H1406.7v4.92l-12.3,4.92h-14.761l-12.3,12.3h-4.92l-7.381-14.761-7.381,2.46-12.3-7.38h-9.841l-4.92,7.38h-9.841l-4.92,7.381,2.46,12.3-4.92,4.92-24.6,12.3v7.381l-7.38,2.46-14.761,19.681h-4.92l-7.38,7.381-2.46-2.46-9.841,14.761h-14.761l-4.92,9.841-14.761-4.92h-29.522l2.46-22.142-19.682-4.92-4.92-4.92,2.46-7.381,14.761-14.761H1145.92l-4.92-9.841,14.761-9.841v-12.3l19.682-14.761,2.46-12.3v-4.92l-7.38-7.381,4.92-19.682-7.381-7.38-2.46-17.221-7.381-9.841,2.46-2.46,4.92,4.92,12.3-9.841,9.841,9.841h4.92l9.841,14.761,2.46-2.46,4.92,4.92h14.761l17.221-7.38,2.46,9.841,12.3,2.46,14.761-14.761v-9.841l19.681-4.92,24.6,2.46,14.761,9.841,14.761,4.92,7.38-2.46,4.92,27.062,17.221-12.3V532.2l7.38-7.38-2.46-9.841,4.92-9.841,9.841-7.381-2.46-9.841,9.841-4.92,7.381,7.381v9.841l4.92,4.92v24.6l7.38,27.062,12.3,12.3v4.92Z" transform="translate(-15224.079 10868.642)" fill="#c86f9f" stroke="#fff" stroke-linecap="round" stroke-linejoin="round" stroke-width="1.5" fill-rule="evenodd"/>
      <path id="Path_511" data-name="Path 511" d="M1291.1,498.381l7.381,14.761v9.841l9.841,12.3-4.92,14.761v4.92l7.38,7.381-2.46,17.221-19.682,14.761,2.46,7.381-12.3,12.3h-4.92v9.841l-4.92,4.92-22.142,4.92-2.46,9.841-12.3,9.841h-17.221l4.92,14.761,14.761,4.92-12.3,17.221,4.92,4.92-12.3,27.062v19.682h4.92l2.46,7.381,7.381,2.46-4.92,9.841,2.46,2.46,9.841-4.92v4.92l2.46-2.46v4.92l7.38,7.38h9.841l19.681,14.761,34.443-7.381h22.142l7.381,7.381v4.92l-19.682,4.92-4.92,4.92,2.46,2.46-9.841,4.92-2.46,17.221-19.682,7.381-24.6-22.142-22.142,12.3-2.46-7.38-2.46,2.46-9.841-4.92h-9.841l-17.221,12.3-22.142-7.38-9.841,14.761-19.682-12.3h-4.92l-9.841,9.841-2.46-7.381h-4.92l4.92-9.841-19.682-14.761-29.522,7.38-7.381-7.38,4.92-9.841-4.92-4.92,2.46-7.381-17.221-2.46,2.46-7.38-9.841-4.92,7.381-7.381h9.841l29.522,14.761,12.3-4.92,2.46-7.381,7.381,4.92,2.46-2.46-4.92-19.682-7.381-2.46v-9.841l-7.38-7.381-2.46-19.681,2.46-7.381,17.221-12.3-2.46-2.46,7.381-7.381v-4.92l12.3-2.46-2.46-19.682,4.92-4.92,7.38-27.062,7.381-7.381h4.92l7.381,2.46,4.92,7.381h9.841l7.381-12.3,12.3-2.46-2.46-7.381,9.841-22.142-4.92-14.761,14.761-14.761,2.46,2.46,2.46-7.381,9.841-4.92,4.92-12.3-2.46-4.92,4.92-7.381-2.46-2.46L1254.2,491h12.3l14.761,9.841Z" transform="translate(-15356.955 10880.323)" fill="#c86f9f" stroke="#fff" stroke-linecap="round" stroke-linejoin="round" stroke-width="1.5" fill-rule="evenodd"/>
      <path id="Path_512" data-name="Path 512" d="M1546.807,776.868l12.3,7.381,12.3-12.3,24.6,14.761h9.841l2.46,12.3,12.3,7.381,2.46-2.46,7.381,7.38-9.841,14.761,2.46,2.46-4.92,4.92-9.841-4.92-2.46,12.3-7.381,7.38h-4.92l4.92,4.92,9.841-4.92,9.841,4.92-7.381,17.221,2.46-2.46,4.92,14.761,7.381,2.46-7.381,29.522-7.381,7.381-12.3-2.46-4.92,4.92-12.3,2.46v4.92l-9.841,9.841v-4.92l-7.381-2.46-2.46-7.38-19.682-9.841v-4.92l-2.46,2.46-7.381-7.38-12.3-2.46-14.761-9.841-54.124-4.92-9.841-14.761v-9.841l-14.761-14.761,2.46-7.381-4.92-4.92-12.3-2.46-7.38-7.381-9.841,9.841-7.381-7.381h-4.92l2.46-7.38-4.92-4.92-12.3,2.46-7.381-7.381-29.522-9.841-2.46,4.92h-9.841l-12.3,14.761-7.38,2.46v4.92l-7.381,2.46h-27.062l-9.841-4.92-22.142,2.46-4.92-9.841,7.38-2.46-12.3-7.381h4.92V801.47h9.841l-4.92-4.92,2.46-2.46-9.841-4.92V769.487l-19.682-9.841L1195,739.965l7.38-7.381h4.92v-4.92l9.841-4.92,2.46-7.381,7.381-2.46,7.38,2.46v4.92l2.46-2.46-4.92,4.92,2.46,2.46,12.3-2.46,7.381,7.38,2.46-2.46v4.92l14.761-4.92,12.3,2.46,9.841-4.92,4.92,9.841h4.92l7.381-7.381,4.92,4.92,7.381-2.46-4.92-9.841,9.841-24.6h9.841l17.221,7.381,4.92-19.682L1379.514,676l-2.46,2.46,9.841,9.841,31.982,7.38,9.841,14.761h4.92l2.46-4.92,9.841,9.841v14.761l7.381,2.46L1473,752.266h4.92v4.92l7.381-2.46,9.841,12.3,12.3-2.46,7.381,7.381v4.92l7.381,2.46,4.92-4.92Z" transform="translate(-15145.229 11150.458)" fill="#c86f9f" stroke="#fff" stroke-linecap="round" stroke-linejoin="round" stroke-width="1.5" fill-rule="evenodd"/>
      <path id="Path_513" data-name="Path 513" d="M1598.586,609.3l9.841,4.92,2.46,22.142-14.761,29.522v14.761l-4.92,9.841h-4.92l-12.3,17.221H1554.3l-24.6,22.142h-4.92l-9.841,19.682-36.9,36.9-2.46-2.46-4.92,4.92v9.841l-14.761,19.682v14.761l-4.92,9.841v9.841l9.841,9.841v9.841L1446.054,887.3v4.92l-22.142-2.46-2.46,7.38-17.221-17.221h-12.3l-4.92-9.841-7.381,2.46-27.062-24.6h-4.92l-2.46-17.221-9.841-9.841-4.92,4.92-14.761-14.761-14.761-4.92-2.46,2.46-19.682-9.841v-4.92l-9.841-4.92,2.46-7.38L1264,764.293l14.761-19.682-2.46-14.761,7.381-2.46,14.761-19.682,19.681,4.92,7.381,7.38,2.46-2.46,27.062,27.062-7.381,17.221,17.221,4.92h34.443l7.38,12.3,12.3-12.3,4.92-19.682,22.142-22.142,31.982-7.38,12.3-9.841v-9.841l12.3-12.3,2.46-12.3,7.38-4.92h9.841l12.3-12.3h9.841l2.46-7.38-7.38-7.381V626.522l4.92-4.92L1542,609.3l12.3-12.3,17.221,12.3Z" transform="translate(-15044.476 11035.104)" fill="#c86f9f" stroke="#fff" stroke-linecap="round" stroke-linejoin="round" stroke-width="1.5" fill-rule="evenodd"/>
      <path id="Path_514" data-name="Path 514" d="M1575.223,711.514H1545.7v-4.92l-12.3-2.46v-4.92l-9.841,9.841h-4.92l-2.46,36.9,7.38,2.46-2.46,7.38-22.142,14.761h-9.841l-19.681,24.6V805l-9.841,12.3-2.46-2.46-4.92,4.92-29.522,7.38-22.142,22.142-4.92,19.682-12.3,12.3-9.841-12.3-49.2-4.92,7.381-17.221L1304.6,819.762l-2.46,2.46-7.381-7.38L1280,809.922l12.3-12.3-2.46-2.46,4.92-9.841,9.841-4.92-2.46-17.221,14.761-17.221,7.381,2.46,9.841-4.92,9.841,4.92,2.46-7.381-7.381-9.841,2.46-17.221-7.381-7.381v-9.841l7.381-2.46,2.46-9.841,7.38-2.46v-9.841l9.841-4.92,2.46-7.381,24.6-12.3-9.841-9.841,2.46-2.46-4.92-17.221-9.841-14.761,4.92-4.92,2.46-12.3-4.92-14.761,4.92-4.92,12.3,2.46,4.92-4.92v-9.841l2.46,2.46,2.46-7.38,14.761-4.92-2.46-14.761,4.92-2.46,7.38,7.38v12.3l9.841,9.841v9.841h-4.92l-2.46,9.841,4.92,19.682,4.92,4.92v24.6h29.522l12.3,17.221,7.381-9.841,4.92,14.761,12.3-2.46,17.221,17.221h14.761l9.841-9.841,2.46-12.3,2.46,2.46,14.761-4.92,17.221,14.761,2.46,7.381v27.062l-7.381,22.142Z" transform="translate(-15021.112 10932.89)" fill="#c86f9f" stroke="#fff" stroke-linecap="round" stroke-linejoin="round" stroke-width="1.5" fill-rule="evenodd"/>
      <path id="Path_515" data-name="Path 515" d="M1291.718,636.761l14.761,14.761h4.92l-4.92,12.3,7.381,7.38v14.761l12.3,7.381h-4.92l-2.46,12.3-7.381,2.46,7.381,7.381v4.92l-7.381,7.381,7.381,2.46-2.46,7.38,7.381,7.381-2.46,2.46,4.92,4.92,22.142,4.92v4.92l7.381-2.46,4.92,4.92,12.3,2.46,9.841,9.841,2.46-2.46,4.92,4.92,4.92-4.92v4.92l4.92-4.92,7.381,7.381v4.92l4.92-4.92,9.841,9.841-2.46,7.381-7.381,2.46-4.92,9.841h-4.92l-7.38,7.381,4.92,14.761,24.6,14.761v19.682l9.841,4.92-2.46,2.46,4.92,4.92-12.3,2.46,2.46,7.38h-4.92l4.92,4.92-4.92,4.92-12.3-2.46V887.7l-24.6-4.92-2.46-7.381h-14.761l-4.92-4.92-24.6-7.381-14.761,4.92V863.1l-7.381-7.381-27.062,2.46v-4.92l-14.761-4.92-2.46-9.841-12.3-12.3v-4.92l-9.841-4.92-2.46-17.221-17.221-2.46-12.3,7.38h-9.841l-2.46-7.38-9.841,4.92-9.841-4.92-12.3,2.46v-4.92l-12.3-2.46-2.46-7.38-2.46,2.46-7.381-7.38-7.381,2.46-4.92-9.841h-14.761v-4.92l-7.381-7.381-17.221,2.46-9.841-4.92-7.381,7.381H1058v-4.92l12.3-12.3-2.46,2.46v-7.381h4.92l-9.841-24.6,2.46-17.221h9.841l14.761-19.681V671.2l-9.841-9.841,9.841-12.3,4.92,4.92,7.381-2.46,12.3-17.221,2.46,7.381h4.92l9.841-9.841,24.6,12.3,7.38-14.761,22.142,7.38,17.221-12.3h9.841l9.841,4.92,2.46-2.46,2.46,7.38,22.142-12.3,22.142,22.142h7.381Z" transform="translate(-15345.274 11071.607)" fill="#c86f9f" stroke="#fff" stroke-linecap="round" stroke-linejoin="round" stroke-width="1.5" fill-rule="evenodd"/>
      <path id="Path_516" data-name="Path 516" d="M1256.586,616.522h-9.841l-12.3,7.381,12.3,4.92-2.46,7.38,17.221,2.46-2.46,7.381,4.92,4.92-4.92,9.841,7.381,7.38,31.982-7.38,17.221,14.761-4.92,14.761-14.761,14.761-7.38-2.46-9.841,7.381,2.46,7.381h4.92l2.46,12.3-2.46,7.38-14.761,14.761-2.46-2.46-4.92,4.92-2.46,12.3,2.46,12.3,4.92,4.92v14.761l-12.3,12.3v4.92h-9.841l-4.92-9.841-27.062-2.46-4.92-4.92-7.381,19.682,2.46,2.46-7.381,2.46,4.92,4.92h-4.92l2.46,7.381-4.92,4.92h-12.3l-7.381,7.381v4.92h-9.841l-12.3-7.381-19.682,2.46-4.92-4.92-12.3,2.46-24.6-9.841-2.46,2.46-7.38-7.38v-9.841l-12.3-17.221h-9.841l-2.46,7.381h-4.92V796.116h-9.841l-17.221-7.381V771.514l-12.3,2.46-4.92-4.92-4.92,4.92-2.46,12.3-14.761,9.841-2.46,12.3-19.682,4.92-9.841-4.92-19.681,2.46-4.92-4.92,4.92-9.841-2.46-12.3,7.381-2.46,4.92-9.841-4.92-4.92-7.381,7.38h-4.92l-4.92-4.92,2.46-12.3,12.3,2.46,9.841-4.92,4.92,4.92,7.38-2.46,4.92,4.92h9.841l4.92-9.841,7.38,2.46,4.92-4.92,19.682,4.92,4.92-12.3,27.062-27.062h4.92l7.38-7.381,14.761-4.92,2.46,2.46,41.823-27.062,12.3,9.841,24.6-9.841-2.46-17.221,7.381-2.46,4.92-9.841,9.841,4.92-7.381-12.3h-7.38l-4.92-4.92V621.443l9.841-4.92,29.522,4.92,4.92-9.841,7.381,2.46,4.92-4.92V599.3h4.92l9.841-9.841,12.3,2.46V587l7.381,7.381v4.92l12.3,2.46Z" transform="translate(-15543.859 11020.501)" fill="#c86f9f" stroke="#fff" stroke-linecap="round" stroke-linejoin="round" stroke-width="1.5" fill-rule="evenodd"/>
    </g>
    <g id="Group_539" data-name="Group 539">
      <path id="Path_476" data-name="Path 476" d="M172,182.46a2.46,2.46,0,1,0,2.46-2.46,2.46,2.46,0,0,0-2.46,2.46" transform="translate(-16639 10426.205)" fill="#7395d4" stroke="rgba(51,136,255,0)" stroke-linecap="round" stroke-linejoin="round" stroke-width="3" fill-rule="evenodd"/>
      <path id="Path_541" data-name="Path 541" d="M594.275,334.045l12.3,7.381-7.38,29.522,7.38,22.142,12.3,2.46,4.92,2.46,2.46,7.381,9.841,2.46-24.6,19.682-17.221,4.92v4.92l-12.3,9.841-4.92,12.3-7.38,4.92,2.46,7.381-4.92,4.92,4.92,2.46,7.38,17.221h4.92l-2.46,7.381,12.3,4.92,9.841,19.682,7.38,2.46L626.258,553l-2.46,2.46,22.142,39.363L631.178,602.2H616.417l7.38-7.381-9.841-9.841,4.92-9.841-12.3-9.841v-7.381l-4.92-4.92-9.841-2.46,2.46-19.682-4.92-4.92h-7.38l-4.92-7.381h-9.841L552.452,528.4l-12.3,2.46-4.92-9.841h-4.92l-9.841-9.841-9.841,2.46-7.38,9.841-9.841-7.381-4.92,4.92h-12.3L456.5,511.178,436.823,491.5H431.9v-4.92l12.3-2.46V479.2h4.92l2.46-9.841-2.46-12.3-12.3-19.682,4.92-4.92-9.841-2.46-4.92-12.3L412.221,402.93l2.46-2.46-9.841-12.3v-9.841L395,375.868l4.92-4.92h17.221l2.46-4.92,14.761-7.381,2.46-4.92-9.841-7.381,9.841-24.6,7.381-4.92,2.46-17.221L456.5,275h4.92l12.3,12.3h9.841l12.3,7.381,9.841,22.142,9.841-2.46,7.38-7.381,9.841,4.92,7.38,14.761h7.381l9.841-7.381,4.92,7.381,9.841,4.92,2.46-4.92h9.841l7.38,7.381Z" transform="translate(-16313.378 10564.923)" fill="#7395d4" stroke="#fff" stroke-linecap="round" stroke-linejoin="round" stroke-width="1.5" fill-rule="evenodd"/>
      <path id="Path_542" data-name="Path 542" d="M499.019,217.841l-12.3,12.3-2.46,7.381,4.92,4.92h9.841l-4.92,2.46v31.982l-4.92,12.3-7.381-2.46-4.92,4.92,2.46,7.381,12.3,2.46,4.92,9.841,12.3-4.92,2.46,7.381,14.761,12.3v4.92l9.841,2.46,2.46,9.841,12.3,2.46-24.6,17.221v14.761l-7.38-2.46-9.841,9.841h-7.381l-17.221-12.3,2.46-4.92-19.681-7.381-2.46-4.92-2.46,2.46-12.3-4.92-4.92,2.46,2.46,7.381-12.3,12.3-14.761-7.381H405.532l-4.92-9.841h-9.841l-7.381,12.3H339.107l-9.841,9.841v7.381l-22.142,4.92,2.46,7.381H302.2l-9.841,7.381v4.92l-17.221-7.381L265.3,385.134l2.46-14.761L253,362.992V345.771l4.92-7.381,7.381,2.46v-4.92h4.92v4.92l7.381-2.46-4.92-7.381v-4.92l4.92-2.46-2.46-2.46,2.46-2.46,7.381,4.92v-9.841l12.3-4.92,7.381-9.841-7.381-9.841,12.3-7.381,2.46,2.46,14.761-19.682v-4.92h4.92v-4.92h9.841l2.46-4.92h22.142l12.3-14.761,29.522-19.682h19.681l9.841,4.92,9.841-4.92,4.92-7.381H481.8l12.3,2.46Z" transform="translate(-16520.725 10467.09)" fill="#7395d4" stroke="#fff" stroke-linecap="round" stroke-linejoin="round" stroke-width="1.5" fill-rule="evenodd"/>
      <path id="Path_543" data-name="Path 543" d="M498.992,135l17.221,19.681,9.841,2.46h17.221l2.46-4.92h4.92L560.5,159.6l12.3-7.381-4.92-4.92,2.46-2.46,12.3-4.92L622,159.6l17.221-7.381,24.6,9.841,4.92,14.761v4.92l-7.38,7.381,4.92,29.522h17.221l22.142,12.3,4.92,7.381v19.682l-7.381,7.381v4.92l7.381,12.3-9.841,12.3-12.3-4.92-2.46,7.381,7.381,14.761-4.92,4.92,2.46,9.841L658.9,346.576h-9.841l-2.46,24.6-7.381,7.381-2.46,12.3-19.682,12.3-7.38,17.221-9.841,4.92-2.46,7.381-7.38,2.46,7.38,7.381-12.3,9.841-9.841,2.46-4.92,7.381,2.46,2.46-14.761,2.46-7.381,7.381h-7.38l-7.381-7.381-2.46,7.381-7.38,2.46-7.381-7.381-7.381,4.92-4.92-4.92H486.691L464.549,462.2l-9.841,7.381-22.142,4.92-4.92-4.92-2.46-12.3h-4.92l-2.46-7.381h-9.841l-7.381-12.3H393.2l-12.3-22.142L371.062,413l-4.92,4.92-4.92-2.46-2.46-7.381-12.3-2.46L344,398.24l4.92-4.92,7.381,2.46,2.46-4.92V376.1l4.92-7.381-2.46-17.221,4.92-2.46H356.3l-4.92-4.92v-7.381l17.221-12.3h17.221l17.221-12.3h7.381l2.46-4.92,19.682-7.381,14.761,7.381,7.381-9.841,17.221-2.46,14.761-9.841,4.92-31.982h-4.92l-9.841-9.841V226.027l-17.221-24.6V196.5l9.841-12.3-4.92-9.841,9.841-9.841,2.46-9.841,12.3-14.761Z" transform="translate(-16387.848 10360.496)" fill="#7395d4" stroke="#fff" stroke-linecap="round" stroke-linejoin="round" stroke-width="1.5" fill-rule="evenodd"/>
      <path id="Path_544" data-name="Path 544" d="M512.621,296.522l-12.3,4.92-2.46,7.381,9.841,14.761-2.46,7.381-9.841-4.92v4.92l-7.381,2.46,9.841,14.761L483.1,365.408l-7.381,2.46v19.682h-12.3l-14.761,7.381-12.3-2.46-12.3,9.841v7.381h-7.381l-4.92,4.92,4.92,4.92-2.46,4.92-17.221,7.381v7.381l14.761,12.3-7.381,7.381v7.381l-4.92,2.46v9.841l-9.841,7.381-17.221,2.46-2.46-2.46,4.92-9.841h-4.92l-4.92-9.841-17.221,4.92-14.761-9.841-4.92,2.46-12.3-7.381-54.124,4.92L242,439.213l2.46-24.6,7.381,7.381,12.3,2.46,17.221-12.3-4.92-7.381V390.009l-9.841-9.841,4.92-7.381,4.92,7.381,12.3,4.92,4.92-4.92-2.46-17.221,4.92-24.6L303.5,328.5l-2.46-2.46,9.841-2.46-2.46-2.46,4.92-4.92,2.46,2.46v-4.92l7.381,2.46v-9.841h9.841v-4.92l7.381-2.46,4.92,2.46v-7.381l9.841-9.841h41.823l7.381-4.92,2.46-7.381h9.841l4.92,9.841h14.761l14.761,7.381,12.3-12.3v-4.92l-4.92-2.46,4.92-2.46,12.3,4.92,4.92-2.46,4.92,7.381,7.381,2.46h9.841v9.841l9.841,4.92Z" transform="translate(-16536.787 10553.241)" fill="#7395d4" stroke="#fff" stroke-linecap="round" stroke-linejoin="round" stroke-width="1.5" fill-rule="evenodd"/>
      <path id="Path_545" data-name="Path 545" d="M383.248,47,405.39,59.3l17.221,17.221,7.381-2.46,12.3,9.841,22.142,24.6v4.92l7.381,2.46,2.46,7.381,9.841,4.92,7.381-2.46,14.761,9.841,7.381-2.46,14.761,12.3-2.46,4.92,4.92,4.92,4.92-4.92,27.062,2.46v4.92l12.3,7.381-2.46,12.3,7.381,7.381-4.92,4.92,22.142,27.062v24.6l7.381-2.46,4.92,9.841-4.92,9.841-9.841,9.841H589.9v4.92l-17.221,19.681-4.92,9.841v14.761L560.382,325v4.92L577.6,352.063v19.682l9.841,9.841h4.92l-4.92,19.682,2.46,7.381-2.46,7.381-14.761,9.841H553l-4.92,9.841-17.221-7.381L503.8,440.63l-9.841,9.841-19.682,4.92-7.381-2.46-4.92-7.381-12.3-2.46-19.682,4.92-9.841-4.92-2.46,7.381-9.841,4.92-29.522-4.92-34.443,19.682-9.841,14.761H316.823l-14.761,7.381-2.46-2.46v4.92h-4.92v-9.841l7.381-2.46-4.92-4.92,2.46-7.381h-4.92l-9.841-9.841L275,420.948h9.841v-4.92h4.92l4.92-9.841-2.46-2.46,7.381-7.381h34.443v-4.92l22.142-22.142h4.92l-2.46-2.46,9.841-19.682L370.947,325l12.3-12.3,7.381-2.46,9.841,4.92h14.761l2.46-7.381,9.841-4.92v-4.92h4.92l2.46-7.381,7.381,2.46,7.381-7.381V270.877l7.381-7.381h4.92l2.46-7.381,17.221-17.221,7.381,2.46v-9.841l12.3-2.46,4.92-4.92-4.92-19.681-9.841-7.381-7.381-9.841,2.46-2.46h-4.92v-4.92l-17.221-17.221v-4.92l-12.3-12.3v-9.841l-7.381-2.46-12.3-12.3-19.682-4.92-4.92-4.92-2.46-17.221-7.381-2.46-7.381-27.062-4.92-4.92-17.221,2.46L353.726,76.522l-4.92-4.92v-4.92L366.027,51.92Z" transform="translate(-16488.602 10232)" fill="#7395d4" stroke="#fff" stroke-linecap="round" stroke-linejoin="round" stroke-width="1.5" fill-rule="evenodd"/>
      <path id="Path_546" data-name="Path 546" d="M601.683,287.6l-12.3,4.92-4.92,7.381-7.381,31.982-7.38,7.381-9.841,22.142,2.46,4.92,7.381,2.46-4.92,9.841-36.9,14.761,9.841,4.92-2.46,2.46,7.38,14.761h4.92l9.841,19.682,9.841,7.381-2.46,4.92h9.841l-4.92,7.381L582,474.576l2.46,12.3-7.381,14.761h-12.3v7.381l-17.221-2.46-7.381-4.92L525.417,516.4l-7.38-2.46-19.682,9.841-12.3-4.92-9.841,7.381v-4.92l-7.381,2.46-4.92-4.92,2.46-7.381-12.3-9.841-4.92,2.46-4.92,14.761-7.381,7.381-7.381-7.381v-12.3l-19.681-9.841-4.92-9.841H385.186L370.425,479.5l-2.46,2.46L353.2,472.116l-7.381-12.3L340.9,467.2h-4.92v-4.92l-2.46,2.46-7.381-7.381-2.46,2.46-2.46-7.381-9.841-4.92L304,437.673l19.682-7.381-2.46-9.841,4.92-4.92h7.381l7.381-14.761,27.062-4.92,2.46,2.46v-4.92l9.841,2.46,4.92-7.381V373.708l12.3-4.92,9.841-12.3-9.841-17.221,7.381-2.46v-4.92l9.841,4.92,2.46-7.381-7.381-7.381V307.283l12.3-4.92,12.3,2.46,9.841-9.841,7.381,2.46V282.682L478.673,263l12.3,24.6,22.142-4.92L520.5,275.3l22.142,7.381H564.78l4.92,4.92,4.92-4.92L582,290.062l9.841-2.46,2.46-4.92,4.92,2.46Z" transform="translate(-16446.254 10547.4)" fill="#7395d4" stroke="#fff" stroke-linecap="round" stroke-linejoin="round" stroke-width="1.5" fill-rule="evenodd"/>
      <path id="Path_547" data-name="Path 547" d="M292.806,368.823l2.46,4.92,51.664-4.92,34.443,14.761,17.221-4.92,4.92,9.841h4.92l-4.92,9.841h4.92l4.92,7.381-9.841,22.142,12.3,9.841H423.2l-4.92,4.92,2.46,17.221-4.92,9.841,9.841,19.681-2.46,2.46,17.221,19.682-7.381,2.46,4.92,9.841h4.92l-7.381,9.841h4.92l2.46,4.92-2.46,7.381-4.92-2.46v9.841h4.92L418.275,568.1l7.381,41.823,4.92,7.381-2.46,9.841-17.221-17.221-7.381-2.46-7.381-19.682-9.841-4.92-22.142,4.92h-4.92l-2.46-4.92-2.46,2.46V580.4l-14.761-12.3-4.92-17.221-17.221-4.92-9.841-9.841,4.92-4.92-2.46-7.381H290.345l-27.062-19.681-7.381-12.3-9.841-7.381-19.682,2.46-4.92-4.92L219,440.169l19.681-34.443h7.381l4.92-12.3V363.9l7.381-19.682L275.584,327v22.142l14.761,19.682Z" transform="translate(-16570.371 10640.853)" fill="#7395d4" stroke="#fff" stroke-linecap="round" stroke-linejoin="round" stroke-width="1.5" fill-rule="evenodd"/>
      <path id="Path_550" data-name="Path 550" d="M522.8,405.965l19.682,9.841,7.38,17.221,7.381,7.381,4.92-2.46,2.46,7.381H572l4.92,9.841,9.841-2.46,4.92-12.3h4.92l4.92,14.761-2.46,4.92H608.9l12.3,9.841,2.46-2.46-4.92-7.381,4.92-14.761,2.46,9.841,9.841,7.381-2.46,2.46,4.92,12.3h-4.92v4.92l9.841,4.92v14.761l4.92,2.46-2.46,7.381,7.38,2.46-2.46,12.3,7.38,4.92,2.46,12.3v9.841L653.187,570.8l-7.38,4.92-9.841,17.221-22.142,17.221-9.841,17.221-24.6,24.6-7.38,2.46v4.92L557.24,676.586l4.92,4.92L547.4,674.125l-2.46,7.381-4.92-4.92,7.38-9.841-2.46-4.92-4.92,4.92-2.46-2.46,2.46-7.381-7.381-2.46-4.92,7.381-4.92-2.46v4.92l-7.381-2.46,7.381-7.381-4.92-2.46-2.46,4.92H510.5l-9.841-4.92,7.381-2.46-2.46-2.46-9.841,4.92-2.46-4.92v4.92l-4.92-2.46,2.46-17.221-14.761-7.381-7.381,4.92,2.46,7.38L448.992,620l-12.3-2.46v-7.38l-7.381-4.92-2.46-7.38-12.3-4.92v4.92l-4.92-4.92-4.92,2.46-12.3-9.841,2.46-7.38h-7.381l-4.92-19.682-7.381,4.92-4.92-4.92-12.3,2.46-2.46-7.381-7.381,2.46,2.46-4.92-7.381-2.46,4.92-9.841-17.221-4.92-4.92-7.38v-4.92l2.46,2.46,4.92-7.381-2.46-4.92h-4.92l7.381-9.841-2.46,2.46-7.381-9.841,7.381-2.46-4.92-12.3h-4.92l-7.381-9.841,2.46-7.381h-4.92l-4.92-12.3,4.92-12.3-2.46-17.221,4.92-4.92H306.3L294,403.5l9.841-19.682-2.46-7.381h12.3l9.841-9.841,12.3-24.6h4.92l7.381,7.381,2.46-2.46v4.92h4.92l4.92-7.381,7.381,12.3,12.3,9.841,19.682,4.92,14.761-2.46,12.3,7.381-2.46,2.46,4.92,4.92,14.761,7.381v12.3l7.381,7.381,7.381-7.381,7.381-17.221,14.761,9.841-2.46,7.381,4.92,4.92,7.381-2.46v4.92l9.841-7.381,7.381,4.92,12.3-2.46Z" transform="translate(-16460.857 10662.756)" fill="#7395d4" stroke="#fff" stroke-linecap="round" stroke-linejoin="round" stroke-width="1.5" fill-rule="evenodd"/>
      <path id="Path_551" data-name="Path 551" d="M554.85,506.347l-9.841-7.381-17.221,2.46-9.841-9.841-7.38,7.381h-7.381l-9.841-9.841V484.2l-9.841-4.92-7.38,7.381-9.841,2.46-7.38-12.3,2.46-4.92-7.381-7.381-22.142-7.381L422,447.3,444.142,435h9.841L471.2,417.78l9.841-2.46,2.46-4.92-7.38-7.381,7.38-2.46,2.46-7.381,9.841-4.92v-4.92l14.761-19.682,12.3-2.46,2.46-14.761,7.381-7.381V319.372l44.283-22.142-2.46-9.841,4.92-4.92-7.381-17.221,2.46-4.92,12.3,2.46,9.841-12.3-7.381-12.3v-4.92l7.381-7.381V208.664l-12.3-17.221-12.3-4.92,4.92-7.381-2.46-4.92,7.381-4.92,7.38,2.46,12.3-7.381,12.3,2.46L633.576,157l4.92,4.92L650.8,157l12.3,12.3,2.46,9.841,31.982-2.46,4.92,4.92v17.221l-9.841,29.522,2.46,2.46-4.92,4.92-2.46-2.46-12.3,4.92-4.92,31.982-4.92,2.46-7.381,19.682v19.681l7.381,14.761,7.38,7.381H690.16L700,341.514l-2.46,2.46,4.92,4.92-4.92,19.682,2.46,2.46-7.381,9.841,2.46,2.46-9.841,2.46,12.3,2.46,7.38,12.3,2.46,9.841-4.92,27.062-4.92,9.841-7.381-2.46-7.38,7.381v12.3l-7.381,9.841-17.221,2.46-12.3,7.381-12.3-4.92V464.523l-12.3-9.841-17.221,4.92-4.92,7.381-4.92-4.92-4.92,9.841-14.761,14.761-2.46-2.46-2.46,9.841-12.3,9.841Z" transform="translate(-16273.953 10392.621)" fill="#7395d4" stroke="#fff" stroke-linecap="round" stroke-linejoin="round" stroke-width="1.5" fill-rule="evenodd"/>
    </g>
    <g id="Group_534" data-name="Group 534">
      <path id="Path_479" data-name="Path 479" d="M1574,537.46a2.46,2.46,0,1,0,2.46-2.46,2.46,2.46,0,0,0-2.46,2.46" transform="translate(-14591.817 10944.571)" fill="#25a1a1" stroke="rgba(51,136,255,0)" stroke-linecap="round" stroke-linejoin="round" stroke-width="3" fill-rule="evenodd"/>
      <path id="Path_483" data-name="Path 483" d="M1601.771,783.708l14.761,14.761,17.221,27.062-2.46,9.841-7.38,7.381h-4.92l2.46,2.46-7.381,7.38h-4.92l-17.221,19.682-2.46,7.381,9.841,24.6-17.221,19.682,2.46,2.46-7.381,12.3,4.92,4.92h-17.221l-14.761,9.841-12.3-2.46-27.062,12.3-9.841-7.381h-9.841l-2.46-2.46,2.46-9.841h4.92l-2.46-7.381,4.92-4.92v-9.841l-7.381-7.38,4.92-9.841-9.841-12.3,7.38-14.761-9.841-14.761-17.221-7.381-2.46-4.92,4.92-7.38h4.92l2.46-14.761-4.92-7.381,7.381-14.761v-12.3L1464,781.248l9.841-9.841,9.841,2.46,12.3-9.841v-4.92l7.381-7.381-17.221-14.761v-7.381l-7.381-2.46V712.363l-7.381-7.38-2.46-14.761,9.841-4.92,4.92-9.841L1500.9,685.3l14.761,2.46,12.3-7.381,4.92,4.92,9.841-9.841,7.381,2.46,7.38-4.92,14.761,4.92-7.381,14.761,4.92,7.38-2.46,7.381h7.381l22.142,22.142-4.92,7.381,4.92,4.92-4.92,4.92,12.3,19.682v4.92h-4.92l2.46,9.841Z" transform="translate(-14752.438 11146.077)" fill="#25a1a1" stroke="#fff" stroke-linecap="round" stroke-linejoin="round" stroke-width="1.5" fill-rule="evenodd"/>
      <path id="Path_484" data-name="Path 484" d="M1625.629,756.062l-4.92,4.92-2.46,12.3,4.92,17.221,12.3,12.3v14.761l4.92,4.92-2.46,12.3,12.3,7.381,12.3-9.841,4.92,7.38h4.92l7.381,7.381-2.46,12.3,4.92,14.761-4.92,7.381,19.681,4.92,4.92,9.841h-29.522l-2.46-7.381-24.6,7.381-12.3-4.92h-14.761l-9.841,12.3-19.681-4.92-7.381-9.841-27.062,2.46-4.92-4.92-14.761,7.381-14.761-7.381-7.381-19.681,2.46-7.381H1510l9.841-27.062,12.3-7.381-2.46-14.761-7.38-12.3,7.38-12.3-2.46-2.46,7.381-2.46,7.381-9.841h4.92l7.381-7.38-2.46-2.46h4.92l7.38-7.381,2.46-7.38-4.92-9.841,7.381-7.38,14.761,4.92,19.681-4.92,9.841,7.38-2.46,2.46,12.3,17.221Z" transform="translate(-14685.27 11227.848)" fill="#25a1a1" stroke="#fff" stroke-linecap="round" stroke-linejoin="round" stroke-width="1.5" fill-rule="evenodd"/>
      <path id="Path_485" data-name="Path 485" d="M1852.78,909.372h-4.92l-7.381-12.3-4.92,17.221h-4.92l-9.84,12.3-7.381-12.3V899.532l-14.761,9.841v9.841l-7.38,7.38-7.38-17.221-9.841,7.381v-4.92l-7.381,12.3-7.381-14.761h-4.92v-4.92l-4.92,12.3v19.682l-4.92-2.46-4.92,4.92,2.46,17.221-4.92-4.92-14.761,4.92-9.841-2.46-2.46,7.381h-9.841l-4.92-7.381h-9.841l-7.381,7.381v4.92h-14.761l-24.6-17.221,2.46-4.92-9.841-19.681,2.46-2.46-7.381,2.46-4.92-4.92,7.381-9.841-12.3-9.841,2.46-7.38L1592,870.009h17.221l22.142-12.3,4.92-14.761-2.46-7.38h4.92l-12.3-12.3,4.92-9.841,24.6-24.6,17.221,2.46L1737.151,747h36.9l7.38,9.841-2.46,7.381,4.92,9.841,12.3,9.841h12.3l2.46,12.3h4.92l7.38,9.841h9.841l-7.38,7.38v9.841l9.84,12.3v17.221l9.841,7.38,4.92,9.841-4.92,9.841,4.92,2.46-2.46,2.46,7.38,22.142Z" transform="translate(-14565.534 11254.131)" fill="#25a1a1" stroke="#fff" stroke-linecap="round" stroke-linejoin="round" stroke-width="1.5" fill-rule="evenodd"/>
      <path id="Path_486" data-name="Path 486" d="M1830.258,810.46l7.381,9.841,7.38-2.46V844.9l-9.841,14.761-2.46,34.443-9.841,7.381-4.92,14.761,2.46,7.381h-9.84l2.46,4.92-7.38,14.761,2.46,7.38-7.38,4.92,7.38,9.841v12.3h-4.92l2.46,7.38-12.3,19.682h-4.92l-14.761,14.761,2.46,7.381-12.3,2.46-7.381-14.761-29.522-14.761v-9.841l-12.3-4.92,4.92-2.46-7.381-14.761-14.761,12.3,2.46,4.92-7.38,7.381-7.381-2.46-4.92-9.841-12.3-4.92-7.38,9.841v14.761l-9.841,7.381-2.46-4.92h-4.92l-2.46,4.92-7.381-9.841h-7.38l-2.46-4.92-9.841-2.46-12.3-29.522-2.46-49.2h4.92l2.46-7.381v-9.841l-4.92-7.381,4.92-34.443,12.3-9.841,2.46-7.38,7.381,9.841,2.46,17.221,14.761,9.841,19.681,4.92,9.841-12.3h9.841l14.761,9.841v-9.841l9.841,2.46,17.221-4.92,4.92,4.92-2.46-17.221,9.841-4.92V827.682l7.381-12.3-2.46,7.38,7.381,2.46,2.46,9.841h4.92l4.92-12.3v4.92l9.841-7.381,7.38,17.221,7.38-7.38V820.3l14.761-9.841v14.761l7.381,12.3,7.38-7.38v-4.92h7.38l4.92-17.221Z" transform="translate(-14555.313 11343.203)" fill="#25a1a1" stroke="#fff" stroke-linecap="round" stroke-linejoin="round" stroke-width="1.5" fill-rule="evenodd"/>
      <path id="Path_487" data-name="Path 487" d="M1593.036,680.46l2.46,17.221,9.841,24.6h4.92l7.38,14.761,9.841,7.38-7.381,4.92-9.841,17.221-9.841-2.46-12.3,9.841,14.761,14.761v12.3l-4.92,2.46-2.46,9.841,4.92,7.381-2.46,14.761-9.841,4.92,29.522,27.062-7.38,22.142,9.841,7.38-4.92,9.841,7.381,7.38v9.841l-4.92,4.92,2.46,7.381h-4.92l-2.46,12.3-9.841-2.46-4.92,4.92h-24.6l-12.3,7.381v4.92h-14.761L1531.532,956l2.46-2.46-7.381-14.761,2.46-14.761-4.92-9.841,2.46-4.92-4.92-19.681-9.841-9.841-2.46-12.3h-4.92l-2.46-9.841-17.221-19.681-36.9-14.761-22.142,7.381-4.92,9.841-22.142,7.381-7.381-2.46,2.46-4.92L1379,832.992l4.92-7.381-2.46-2.46,7.381-7.38,9.841-2.46,7.381-7.381h9.841l19.682-19.681,29.522-4.92v-4.92l7.381-7.38,14.761-7.381-2.46-12.3h4.92l4.92-7.381-4.92-12.3,2.46-27.062,31.982-2.46,4.92-7.381,9.841,2.46,9.841-7.381,4.92-9.841,4.92,4.92,29.522-2.46Z" transform="translate(-14876.554 11153.378)" fill="#25a1a1" stroke="#fff" stroke-linecap="round" stroke-linejoin="round" stroke-width="1.5" fill-rule="evenodd"/>
      <path id="Path_488" data-name="Path 488" d="M1678.532,798.92h9.841l12.3,12.3h4.92l9.841,12.3-2.46,7.38,12.3,9.841-7.381,7.381,2.46,4.92h9.841l-17.221,22.142v12.3l-4.92,7.381,4.92,29.522-2.46,7.381h-4.92v34.443l4.92,22.142,4.92,4.92-2.46,4.92,9.841,14.761v9.841l-12.3,4.92,2.46,7.381h-19.681l-2.46,4.92h-7.381v-4.92l-14.761-7.381-2.46-4.92-36.9-12.3-17.221,9.841h-17.221l-12.3,9.841-4.92,14.761,2.46,4.92-7.381,7.381-12.3-9.841-19.682-2.46-2.46-17.221-9.841-4.92,2.46-19.682-4.92-7.38,7.381-17.221-2.46-9.841,4.92-9.841,12.3-9.841V929.31l7.381-7.381-7.381-17.221v-9.841l2.46,2.46,4.92-4.92,7.381-19.682,9.841-9.841V855.5l-7.38-9.841v-9.841l12.3-17.221-2.46-12.3,7.381,2.46,12.3-9.841h36.9l4.92-4.92h7.381l4.92,7.381h29.522Z" transform="translate(-14661.906 11322.76)" fill="#25a1a1" stroke="#fff" stroke-linecap="round" stroke-linejoin="round" stroke-width="1.5" fill-rule="evenodd"/>
      <path id="Path_489" data-name="Path 489" d="M1549.576,748.567l4.92,19.682-9.841,9.841,2.46,7.38-17.221,12.3-4.92,9.841-29.522,4.92-14.761,17.221-14.761,2.46-27.062,19.682-4.92-2.46-2.46-9.841-2.46,2.46-14.761-14.761-2.46,2.46-9.841-4.92-4.92-14.761-24.6-7.381-7.38-7.38-14.761,12.3-12.3-9.841,14.761-17.221v-9.841l-9.841-9.841,4.92-34.443,9.841-12.3,4.92-17.221,12.3-4.92,22.142-27.062,9.841-4.92,4.92,4.92,17.221,2.46,2.46,7.381,14.761,9.841,9.841,17.221-2.46,7.381,4.92,4.92,12.3-2.46,2.46,7.38,12.3,12.3h4.92l9.841,12.3-2.46,2.46,4.92,7.38,39.363,2.46,4.92-7.381Z" transform="translate(-14936.422 11127.095)" fill="#25a1a1" stroke="#fff" stroke-linecap="round" stroke-linejoin="round" stroke-width="1.5" fill-rule="evenodd"/>
      <path id="Path_490" data-name="Path 490" d="M1794.417,846.293h-27.062l-22.142,9.841-19.681,19.682-24.6,14.761-17.221-2.46-24.6,24.6-4.92,9.841,12.3,9.841-4.92,2.46,2.46,7.38-7.381,17.221-19.682,9.841h-24.6l-9.841-12.3-17.221-2.46,4.92-4.92-4.92-14.761,2.46-14.761-7.381-7.381h-4.92l-2.46-7.38h4.92l17.221-19.682-4.92-4.92,2.46-4.92,27.062-31.982,46.744-22.142,4.92-14.761,17.221-12.3v-7.38l-14.761-12.3h-4.92l-4.92-7.38h-4.92l-2.46-9.841,7.381-7.38,14.761,7.38,19.682,2.46,24.6-4.92,17.221,2.46,12.3-4.92,19.681,4.92,9.841-4.92,19.682-22.142,12.3-39.363L1828.86,679l4.92,2.46-14.761,12.3V715.9l7.38,4.92,2.46,7.381-7.38,7.381-4.92,9.841,2.46,4.92-7.38,9.841,2.46,12.3-7.38,7.381,2.46,2.46-4.92,7.38,2.46,22.142-4.92,14.761-7.381,4.92v14.761Z" transform="translate(-14593.277 11154.838)" fill="#25a1a1" stroke="#fff" stroke-linecap="round" stroke-linejoin="round" stroke-width="1.5" fill-rule="evenodd"/>
      <path id="Path_491" data-name="Path 491" d="M1796.745,648.266l4.92,4.92-2.46,9.841-14.761,31.982h-4.92l-7.381,7.381v12.3l-17.221-4.92,2.46-2.46-4.92-4.92-4.92,2.46-2.46,12.3-7.381,9.841,4.92,2.46v4.92l-4.92,2.46-2.46,14.761-2.46,4.92-4.92-4.92L1713.1,773.735l4.92,4.92-7.38,9.841v19.681l-7.381,7.381,2.46,14.761L1698.337,850l4.92,14.761,17.221,24.6v7.38l9.841,4.92L1713.1,928.727l-7.381,29.522-4.92,4.92-17.221,4.92-2.46,17.221-14.761-14.761,2.46-4.92-12.3-7.38h-29.522l-12.3,7.38-9.841-22.142-14.761-12.3V901.665l-9.841-7.381,4.92-4.92-4.92-4.92,4.92-4.92-2.46-4.92-27.062-22.142,2.46-4.92-4.92-7.38,7.381-14.761-14.761-4.92-4.92,4.92h-12.3l-4.92,7.381-4.92-4.92-12.3,7.381-14.761-2.46-17.221-9.841v-7.381l7.38-7.381-9.841-12.3,2.46-7.38,9.841-7.381-7.381-31.982,14.761-19.682V712.231l9.841-17.221-2.46-9.841-9.841-9.841v-9.841l2.46-9.841,12.3-12.3-4.92-4.92h-9.841l4.92-12.3-9.841-27.062,4.92-19.682,4.92-4.92,9.841-2.46,14.761,4.92v4.92l14.761,9.841,4.92,17.221,7.38,2.46,2.46,17.221,7.381,4.92,7.381-2.46,4.92,7.38,7.381,2.46h24.6l7.381-12.3,7.38-2.46,17.221,2.46,9.841,9.841,19.681-2.46v-4.92l24.6-12.3,7.381,9.841-14.761,2.46,22.142,7.38,17.221-12.3h24.6l4.92-9.841,14.761,9.841v14.761l12.3,4.92v-4.92h4.92l2.46-7.38,12.3-2.46,4.92,4.92-2.46,9.841Z" transform="translate(-14740.757 10998.599)" fill="#25a1a1" stroke="#fff" stroke-linecap="round" stroke-linejoin="round" stroke-width="1.5" fill-rule="evenodd"/>
      <path id="Path_492" data-name="Path 492" d="M1646.461,621.186l-7.381,22.142,9.841,29.522-4.92,9.841,14.761,7.38-12.3,12.3L1644,722.054l12.3,14.761v4.92l-9.841,14.761v19.682l-12.3,14.761-2.46,22.142,7.381,4.92v9.841l-9.841,7.381-2.46,7.38,2.46,7.381,7.38,4.92-7.38,7.381-2.46,12.3-4.92,4.92-19.682,4.92h-24.6l-4.92-4.92-4.92,9.841-9.841,7.381-7.381-2.46-7.381,7.381-29.522,2.46-4.92,19.681-14.761,7.381-31.983-2.46-4.92-7.38,2.46-2.46-9.841-12.3h-4.92v-4.92l-14.761-14.761-12.3,2.46-4.92-4.92,2.46-7.381-9.841-17.221-7.381-4.92-2.46,2.46-9.841-17.221h-12.3l-7.381-4.92L1370.92,818l14.761-12.3h4.92l9.841-12.3,24.6-2.46,7.38-7.38v-4.92l9.841-7.381,4.92-9.841V746.656l4.92-2.46,4.92-19.682,4.92-4.92-4.92-7.38,2.46-17.221-12.3-4.92,7.381-22.142V640.868l-2.46-7.381-7.381-7.38h-4.92l-4.92-9.841,2.46-24.6,7.381-9.841v-9.841l9.841-4.92,4.92-7.38V540l17.221,4.92,4.92,14.761,19.681-4.92v-7.38l12.3-7.381,22.142,2.46,12.3,17.221-4.92,2.46-2.46,14.761h12.3l7.381,9.841,4.92-2.46,12.3,4.92,14.761-7.381,9.841,14.761,17.221,4.92,7.381,14.761,17.221,4.92Z" transform="translate(-14895.536 10951.872)" fill="#25a1a1" stroke="#fff" stroke-linecap="round" stroke-linejoin="round" stroke-width="1.5" fill-rule="evenodd"/>
      <path id="Path_493" data-name="Path 493" d="M1654.435,805.3l12.3,4.92v9.841l-12.3,17.221v9.841l7.38,9.841v7.38l-24.6,34.443,4.92,14.761-2.46,2.46h4.92v7.381l-7.381,7.381v19.681l-17.221,19.681,2.46,9.841-7.381,17.221,4.92,4.92-2.46,22.142-9.841,7.381-14.761-7.381v4.92l-12.3,2.46-19.682-14.761-9.841-9.841-9.841-46.743V943.071l-12.3-4.92v9.841l-12.3,17.221-39.363,9.841v9.841l-12.3,2.46,14.761-22.142,14.761-4.92,9.841-12.3V930.771l-4.92-9.841,14.761-24.6v-24.6l12.3-17.221,9.841,4.92,17.221-2.46,4.92-4.92,14.761-27.062,4.92-27.062,4.92-4.92,17.221,7.381h4.92l7.381-7.381,9.841,4.92,22.142-2.46,7.381,7.381Z" transform="translate(-14750.978 11321.3)" fill="#25a1a1" stroke="#fff" stroke-linecap="round" stroke-linejoin="round" stroke-width="1.5" fill-rule="evenodd"/>
      <path id="Path_494" data-name="Path 494" d="M1684.39,721.761l31.982,24.6-2.46,9.841-14.761,9.841-2.46,14.761-19.682,9.841h-9.841l-4.92,7.38-19.682,9.841-4.92,9.841-19.681,19.682,4.92,7.381-17.221,19.682h-9.841v4.92l-12.3,4.92-2.46-4.92-4.92,2.46-4.92-36.9-12.3-12.3L1554,800.487l7.38-12.3,2.46-17.221,24.6-12.3v-12.3l9.841-24.6,12.3-14.761,9.841,4.92,2.46-2.46,4.92,4.92h24.6l14.761,7.381h17.221Z" transform="translate(-14621.021 11195.724)" fill="#25a1a1" stroke="#fff" stroke-linecap="round" stroke-linejoin="round" stroke-width="1.5" fill-rule="evenodd"/>
      <path id="Path_495" data-name="Path 495" d="M1454.47,748.221l-4.92,7.381h7.381l12.3,14.761h9.841l9.841-4.92,4.92-7.38,24.6-12.3,41.823,17.221,22.142,27.062,2.46,12.3,9.841,7.381,4.92,22.142-2.46,2.46,4.92,9.841-2.46,14.761L1607,881.072l2.46-2.46,4.92,4.92,17.221,2.46,14.761-12.3h22.142l7.381-4.92h22.142v4.92l9.841,4.92,27.062-12.3,12.3,2.46,14.761-9.841h9.841l12.3,17.221-7.381,12.3-4.92,27.062-7.381,14.761-12.3,17.221H1722.63l-9.841,19.681h-4.92l-4.92,7.381-7.381-17.221-14.761-2.46-7.381-7.38v-7.381l-7.381,2.46v9.841l-4.92,7.381-22.142,17.221-2.46-7.381-7.381-4.92-4.92,4.92-7.38-2.46-17.221,7.381-2.46,4.92v-4.92l-7.381-7.381-12.3,2.46-9.841,9.841L1557.8,972.1l-4.92,4.92H1533.2l-4.92-4.92h-7.381l-4.92-19.682-7.38-4.92,9.841-17.221-4.92,2.46v-4.92h-14.761v-4.92l9.841-7.38v-7.381l-4.92-4.92-12.3,2.46v-4.92l-2.46,2.46v-4.92l-14.761-12.3-2.46-7.38h-9.841l-17.221-9.841h-14.761l2.46,2.46-9.841,14.761-34.443-7.38-17.221,12.3-9.841-9.841-12.3-2.46-7.38-7.381-2.46,2.46v-4.92l-7.381-2.46-2.46-7.38,17.221,12.3,2.46-2.46,9.841,9.841,2.46-7.381,14.761-7.38,9.841-17.221,19.682-7.381h14.761l9.841-31.982-14.761-19.682,7.381-14.761-9.841-4.92-4.92,4.92-9.841-2.46,7.381-2.46,7.381-17.221,7.38,2.46,4.92-4.92L1434.788,731l7.381,7.381,2.46-2.46,7.38,12.3Z" transform="translate(-14949.563 11230.768)" fill="#25a1a1" stroke="#fff" stroke-linecap="round" stroke-linejoin="round" stroke-width="1.5" fill-rule="evenodd"/>
      <path id="Path_553" data-name="Path 553" d="M1842,831.32l-14.761,14.761-12.3,41.823-24.6,22.142-12.3,2.46-9.841-4.92-12.3,4.92-19.681-2.46-22.142,4.92-29.522-4.92-7.38-4.92-7.381,7.38v4.92h-14.761l-17.221-7.381h-22.142l-7.38-4.92-2.46,2.46-17.221-12.3-2.46-9.841-17.221-19.682v-9.841L1564,851l7.381-27.062-2.46-7.38,7.381-9.841-2.46-7.38,4.92-4.92-2.46-4.92,4.92-22.142,12.3-17.221,4.92,4.92,2.46-2.46,2.46-17.221,4.92-4.92-4.92-7.381,4.92-2.46,7.38-19.682,7.381,4.92-2.46,2.46,4.92,4.92h9.841l4.92-4.92,2.46-14.761,7.38,2.46,2.46-9.841,9.841-12.3-2.46-2.46,7.381-17.221-4.92-7.38,9.841-4.92,17.221,4.92,4.92-4.92-2.46-2.46,22.142-24.6-2.46-7.381,4.92-7.38,12.3-12.3,4.92,2.46v-9.841l4.92-7.381,9.841,2.46-2.46,9.841,9.841,7.381h34.443l12.3,12.3,17.221-4.92,4.92-4.92,14.761,9.841,9.841-4.92,4.92,14.761h9.841l4.92-7.381h4.92l29.522,19.682-7.381,9.841-7.38,2.46,7.38,4.92,4.92,9.841-7.38,7.381-2.46,14.761-9.841,4.92-2.46,31.982-14.761,19.682v12.3l-14.761,9.841v12.3l-7.38,7.38v12.3l-4.92,4.92,2.46,2.46-7.38,7.381v9.841l12.3,14.761Z" transform="translate(-14606.42 11000.059)" fill="#25a1a1" stroke="#fff" stroke-linecap="round" stroke-linejoin="round" stroke-width="1.5" fill-rule="evenodd"/>
    </g>
    <g id="Group_540" data-name="Group 540">
      <path id="Path_482" data-name="Path 482" d="M705,98.46A2.46,2.46,0,1,0,707.46,96,2.46,2.46,0,0,0,705,98.46" transform="translate(-15860.72 10303.549)" fill="#37a5e5" stroke="rgba(51,136,255,0)" stroke-linecap="round" stroke-linejoin="round" stroke-width="3" fill-rule="evenodd"/>
      <path id="Path_535" data-name="Path 535" d="M693.8,408.186l2.46,27.062-14.761,12.3V462.31l-4.92,4.92v14.761l14.761,27.062-12.3,9.841-4.92,9.841-22.142,4.92-7.381,14.761v14.761l-4.92,2.46-7.381,19.682-36.9-14.761-4.92-7.38H570.788l-7.381-7.381h-4.92l-7.38-9.841-2.46,2.46-9.841-4.92-7.38-7.381V531.2H526.5v-4.92l12.3-2.46,4.92-4.92-2.46-9.841-9.841-7.381-9.841-22.142,2.46-2.46L514.2,462.31l-14.761-12.3-7.381-17.221-9.841-4.92v-7.381l-9.841-4.92L465,398.345h4.92v-12.3l4.92-2.46,4.92-14.761,12.3-7.381v-4.92l19.682-4.92,4.92-7.381h4.92L541.266,327l2.46,7.381-7.38,14.761-2.46,22.142h12.3l9.841,7.381,9.841-4.92,12.3,2.46,9.841-4.92,14.761,12.3v4.92l4.92-2.46,9.841,7.381,4.92-4.92h9.841l17.221,17.221h7.381l9.841,7.381,22.142-9.841,2.46,4.92Z" transform="translate(-16211.165 10640.853)" fill="#37a5e5" stroke="#fff" stroke-linecap="round" stroke-linejoin="round" stroke-width="1.5" fill-rule="evenodd"/>
      <path id="Path_536" data-name="Path 536" d="M805.7,346.221l-9.841,39.363,2.46,7.381h9.841l14.761,7.381,17.221-14.761h4.92l14.761,2.46,19.682,9.841-12.3,2.46-14.761,14.761v14.761l-7.381,4.92,2.46,14.761-7.381,9.841h-12.3L818,464.31l-4.92,7.381-14.761,4.92-17.221,24.6-9.841,4.92-19.681-2.46-4.92,9.841,2.46,22.142-4.92,7.381v9.841l-12.3-12.3-9.841,14.761-2.46-2.46-7.38,7.381-2.46-2.46-2.46,22.142-4.92,9.841-17.221,2.46-2.46-7.381-24.6,4.92-14.761-12.3-7.381,2.46,2.46-2.46-4.92-2.46-24.6,4.92-39.363-2.46L552.3,545.5,540,535.656l4.92-7.381,19.682-2.46,2.46-9.841,14.761-9.841-14.761-27.062V464.31l4.92-4.92V444.629h4.92v-4.92l9.841-4.92-2.46-27.062,4.92-4.92h12.3l12.3-9.841v-4.92l9.841-4.92V378.2l17.221,14.761-2.46,7.381,4.92,4.92,9.841,4.92,9.841-2.46v-4.92l12.3-4.92-2.46-9.841,24.6-29.522,4.92,4.92,9.841-9.841-2.46-4.92,4.92,2.46,9.841-9.841,2.46,2.46,12.3-7.381v-4.92L744.2,329l4.92,7.381,4.92-2.46,7.381,4.92,17.221-4.92,19.682,9.841Z" transform="translate(-16101.651 10643.773)" fill="#37a5e5" stroke="#fff" stroke-linecap="round" stroke-linejoin="round" stroke-width="1.5" fill-rule="evenodd"/>
      <path id="Path_537" data-name="Path 537" d="M862.364,299.2l-4.92,14.761,12.3,12.3v7.381l7.381,9.841v9.841l-17.221,12.3-2.46,12.3-7.381,4.92,4.92,2.46-2.46,2.46,4.92,12.3,17.221,12.3-2.46,4.92-17.221,9.841-44.283,2.46-2.46,9.841-9.841,2.46v17.221l-31.982-9.841-9.841,4.92-7.381-4.92-7.38,2.46-4.92-7.381-7.381,9.841-9.841,4.92-2.46-2.46-9.841,9.841-2.46-2.46L695.071,478.8l-4.92-4.92-24.6,29.522,2.46,7.381-19.682,14.761-14.761-7.381V508.32l-14.761-12.3V461.576L601.584,454.2v-4.92l-7.381-4.92h-4.92v-9.841l-7.381-4.92h-9.841l-7.381-7.381,7.381-7.381v-9.841l-14.761-12.3-2.46,2.46L545,382.85v-9.841l12.3-2.46,14.761-24.6,9.841-7.381V284.443l14.761-2.46,7.381-14.761h9.841l4.92,4.92,7.38-2.46,4.92-7.381h17.221l4.92,2.46,2.46,9.841,14.761-4.92,7.38,7.381-2.46,7.381,9.841,12.3,9.841,4.92h12.3l4.92-12.3,7.381-4.92h22.142l4.92-4.92V259.841L754.116,250h12.3l2.46,7.381h9.841l7.38-4.92,12.3,27.062,7.381,2.46h4.92l4.92-9.841,17.221-14.761,7.381,12.3-2.46,9.841,4.92,14.761Z" transform="translate(-16094.35 10528.418)" fill="#37a5e5" stroke="#fff" stroke-linecap="round" stroke-linejoin="round" stroke-width="1.5" fill-rule="evenodd"/>
      <path id="Path_538" data-name="Path 538" d="M1006.276,298.151v17.221l-4.92,7.381-9.841,4.92,12.3,36.9-9.841,7.381-7.38,14.761-24.6,7.381-2.46,12.3,4.92,2.46-2.46,12.3-4.92,2.46,2.46,2.46-7.38,7.381-2.46-2.46-4.92,9.841h-4.92l-14.761,12.3-9.841-7.381v-12.3l-29.522,7.381-7.381-4.92h-12.3v-7.381l-4.92-4.92,2.46-14.761-4.92-9.841L838.984,413.78l-4.92,9.841h-4.92L819.3,418.7l-9.841-24.6-7.38,4.92H792.24l-2.46-4.92-12.3-2.46-7.381,9.841,2.46,12.3-7.38,12.3H743.036l-7.381,7.381L733.2,443.3H718.434L701.213,431V418.7l-7.38-7.381-14.761,4.92-4.92-12.3H656.93l-14.761,9.841-2.46-4.92h-9.841l-12.3,14.761-12.3,2.46-17.221-2.46L578.2,416.24l-12.3-2.46-14.761,4.92V411.32L541.3,396.559l-12.3-4.92,9.841-2.46-2.46-2.46,9.841-19.681V357.2l-4.92-7.381,2.46-2.46-9.841-7.381,4.92-7.381h31.982l17.221-24.6,12.3,2.46,4.92-7.381,7.381,2.46,2.46-4.92,12.3-4.92,24.6-29.522h9.841v9.841l17.221,17.221,2.46,17.221,4.92,2.46-4.92,12.3,17.221-4.92,7.38-7.381,24.6,2.46,12.3-4.92-2.46-17.221,14.761-2.46,2.46,4.92h4.92l24.6-12.3,17.221,9.841,9.841-2.46,7.38-7.381-7.38-22.142,7.38-9.841-4.92-4.92v-9.841h9.841l7.381-4.92-4.92-9.841,2.46-9.841,2.46-4.92H843.9V202.2l-7.381-7.381,9.841-4.92v-9.841l12.3-9.841,2.46-7.381,9.841-4.92V153l17.221,7.381,2.46,12.3,12.3,12.3,4.92,12.3,17.221,7.381-4.92,9.841-7.381,4.92,2.46,2.46,19.682-2.46,12.3-7.381,9.841,9.841h4.92l4.92,9.841-4.92,7.381-14.761,7.381-2.46,12.3,2.46,2.46,7.381-4.92h12.3l9.841,4.92,2.46,14.761,14.761,7.381,9.841-2.46-2.46,7.381,4.92,7.381Z" transform="translate(-16117.713 10386.779)" fill="#37a5e5" stroke="#fff" stroke-linecap="round" stroke-linejoin="round" stroke-width="1.5" fill-rule="evenodd"/>
      <path id="Path_539" data-name="Path 539" d="M823.683,624.355l12.3,7.381-4.92,4.92,2.46,2.46H828.6l-7.38,7.38-2.46,24.6v-4.92l-4.92-4.92H804v-4.92L789.24,641.576l-7.381,2.46-7.381-7.38v-4.92H759.718l-9.841,4.92-12.3-7.381-4.92,4.92-14.761-4.92-9.841,4.92,2.46,2.46h-4.92l-17.221-12.3-17.221,12.3-7.38-2.46-4.92,4.92v4.92l-7.38,7.381,2.46,12.3h-4.92l-4.92,14.761-14.761-14.761h-4.92V658.8l-17.221-7.38,2.46-2.46-9.841-9.841-9.841-4.92-12.3,2.46,2.46-7.381-12.3-12.3-14.761-4.92v4.92h-4.92v-4.92l-14.761-12.3h-4.92L526,592.372l4.92-4.92-2.46-2.46,12.3-27.062,29.522,4.92v4.92l17.221,4.92,4.92,4.92,4.92-2.46,9.841,9.841,22.142-7.381V562.85l7.38-7.381h-4.92v-4.92l-7.381-7.381V528.408l9.841,2.46v-4.92l7.38-7.38h4.92l-2.46-2.46,7.381-12.3-2.46-7.381,4.92-4.92-14.761-24.6,7.381-12.3-4.92-9.841h9.841V434.92L666.231,430l-2.46,2.46,14.761,9.841,27.062-4.92v7.381h9.841l14.761-4.92,7.381,7.381h9.841l12.3,7.38,17.221-2.46,14.761,4.92,17.221,12.3,4.92,19.681,7.381-4.92,7.38,2.46v7.38l-4.92,4.92,2.46,7.38-4.92,4.92,2.46,2.46-4.92,9.841h-4.92l-4.92,4.92v9.841l-9.841,4.92L804,557.93l7.38,7.381v12.3L804,584.992v9.841h4.92v9.841Z" transform="translate(-16122.094 10791.252)" fill="#37a5e5" stroke="#fff" stroke-linecap="round" stroke-linejoin="round" stroke-width="1.5" fill-rule="evenodd"/>
      <path id="Path_540" data-name="Path 540" d="M693.107,584.337l-7.38-14.761h-4.92l-4.92-7.381-19.682-4.92-9.841,2.46L607,544.974l4.92-19.682-2.46-9.841,2.46-2.46,4.92,4.92,4.92-7.381,2.46,2.46,9.841-14.761,12.3,12.3,4.92-14.761-2.46-22.142,4.92-12.3,19.681,2.46,9.841-4.92,17.221-24.6,14.761-4.92,12.3-12.3,4.92,2.46,12.3-4.92,4.92-7.381-2.46-14.761,7.381-4.92V372.761L769.372,358h14.761l24.6,12.3h12.3l4.92,17.221,9.841,12.3-4.92,9.841h4.92v4.92l-9.841,12.3h-4.92l-7.381-7.381-9.841,7.381v7.381l-7.381,7.381,4.92,7.381-27.062,24.6,4.92,12.3h12.3l2.46,12.3,4.92,2.46v9.841l-7.381,2.46v9.841h-9.841l-7.381,9.841h-9.841l-7.381-7.381-9.841-2.46-7.381,12.3,14.761,9.841,12.3-2.46,2.46,7.381h9.841v17.221h-9.841l-12.3,12.3-14.761,2.46,2.46,2.46-14.761,12.3-27.062-7.38-4.92,4.92-4.92-2.46v-7.381Z" transform="translate(-16003.818 10686.118)" fill="#37a5e5" stroke="#fff" stroke-linecap="round" stroke-linejoin="round" stroke-width="1.5" fill-rule="evenodd"/>
      <path id="Path_548" data-name="Path 548" d="M640.4,478.089v4.92h4.92v4.92l9.841,9.841H665l4.92,9.841,14.761,7.381,14.761-2.46,14.761,12.3,29.522,12.3,2.46-9.841,12.3-12.3V500.231l4.92-9.841,12.3,9.841,12.3,29.522,4.92,2.46h66.425l-4.92,4.92,2.46,9.841h-9.841l2.46,9.841-7.381,9.841L856.9,596.178l-4.92,4.92,2.46,4.92-7.381,9.841,2.46,2.46-9.841,4.92-4.92,9.841-4.92-2.46-4.92,9.841,9.841,17.221h4.92l-7.38,4.92,2.46,12.3-4.92,4.92-19.682,7.381-17.221-12.3H783.09l-12.3-9.841h-9.841l-7.38-4.92-14.761,4.92v4.92l-17.221-2.46-7.38-7.381h-4.92l-9.841-12.3-9.841-2.46L650.24,610.939l-9.841-2.46L620.718,588.8l-12.3-4.92-2.46-7.381-7.38,2.46-9.841-7.38-2.46-12.3-7.38-2.46-4.92-4.92,2.46-2.46-39.363-14.761-2.46-4.92,4.92-12.3h-12.3l-7.381-14.761-4.92-2.46,2.46-12.3-7.38-2.46,2.46-7.381-4.92-7.381v-9.841l-9.841-4.92v-4.92h4.92l2.46-4.92-7.38-4.92,2.46-7.381-12.3-7.381v-7.381l-4.92,12.3,4.92,12.3-14.761-9.841h-9.841l2.46-4.92-4.92-14.761h-4.92l-4.92,12.3-9.841,2.46-4.92-9.841-22.142-12.3-7.381-17.221L387,379.682l9.841-7.381,7.381,2.46L418.982,360l4.92,4.92,24.6,2.46,12.3,14.761L487.868,396.9h12.3l4.92-4.92,7.381,7.381,17.221-12.3,17.221,9.841,4.92,9.841h4.92l14.761-9.841,17.221-2.46,17.221,12.3-2.46,17.221,12.3,7.381,4.92,12.3,9.841,7.381-4.92,9.841,9.841,9.841-7.38,4.92,9.841,2.46Z" transform="translate(-16325.06 10689.039)" fill="#37a5e5" stroke="#fff" stroke-linecap="round" stroke-linejoin="round" stroke-width="1.5" fill-rule="evenodd"/>
      <path id="Path_549" data-name="Path 549" d="M682.656,271.3v56.584l-14.761,9.841-7.381,19.682h-9.841l-4.92,4.92v9.841h4.92v4.92l19.682,9.841,2.46,14.761-7.381,7.381,7.381,7.381h9.841l9.841,7.381-2.46,7.381h4.92l7.381,4.92v4.92l19.682,9.841v19.681l-9.841,19.682h-4.92v4.92l-12.3,9.841H662.974l-2.46,4.92-9.841,2.46-19.682-9.841L616.231,487.8H606.39l-4.92,4.92-9.841-7.381-2.46,2.46-4.92-7.381h-4.92l-4.92-9.841-12.3,4.92-12.3-2.46-9.841,7.381-9.841-9.841h-12.3l2.46-22.142,7.38-14.761-2.46-7.381-4.92,4.92H512.9l-7.381-4.92-2.46-7.381H488.3l-7.38-24.6,7.38-29.522L476,357.408l19.682-22.142h4.92l14.761-22.142,4.92,4.92,2.46-7.381,17.221-4.92,14.761,9.841-2.46,9.841,4.92,7.381,9.841,2.46,12.3-7.381,17.221-2.46,7.381-9.841-2.46-7.381,4.92-9.841h9.841l7.381-9.841,4.92-24.6L643.293,259l19.682,9.841L680.2,271.3Z" transform="translate(-16195.104 10541.56)" fill="#37a5e5" stroke="#fff" stroke-linecap="round" stroke-linejoin="round" stroke-width="1.5" fill-rule="evenodd"/>
      <path id="Path_554" data-name="Path 554" d="M993,311.32v4.92l-7.38,7.381H980.7v9.841l-9.841,7.381,7.381,7.381v4.92l-12.3,4.92-2.46,7.381,4.92,12.3-17.221,4.92,4.92,19.681-7.38,4.92,7.38,22.142-9.841,9.841-14.761-2.46-7.381-7.381-27.062,12.3-9.841-4.92-12.3,4.92,2.46,12.3-7.381,2.46-2.46,4.92-27.062-2.46-7.38,7.381-14.761,4.92,2.46-12.3h-4.92V444.17l-19.682-22.142v-7.381l-7.381-2.46L756.824,444.17l-14.761,7.381-2.46-2.46-9.841,7.381-7.381-2.46-17.221,24.6-31.982-2.46-4.92,9.841H653.5l-12.3-9.841-4.92-9.841V444.17l12.3-24.6,4.92-27.062,19.682-9.841-2.46-2.46,9.841-29.522V333.461l-4.92-4.92L643.656,331l-12.3-22.142-7.38,4.92-12.3-4.92-4.92,4.92-9.841-2.46-4.92,7.381-12.3-2.46-9.841,7.381-9.841-2.46-7.381,4.92,2.46,7.381-9.841,7.381-14.761-2.46V323.621l-4.92-7.381v-7.381l7.38-7.381-4.92-9.841,2.46-7.381-27.062-12.3L486.2,279.337l-9.841-7.381L449.3,264.576v-4.92h-4.92l2.46-9.841,4.92-2.46V227.673l-7.381-14.761-7.38-4.92,17.221-7.381,9.841,4.92,7.381-2.46L498.5,176.009V153.868l9.841-9.841-4.92-9.841,9.841-9.841-12.3-9.841V92.363l14.761-7.381-12.3-9.841,4.92-9.841,9.841,4.92,2.46-4.92,19.682,19.682,29.522,7.381,2.46-29.522,2.46-2.46,19.682,9.841,7.38-7.381L599.372,53h7.381l41.823,17.221v4.92l12.3,7.381h22.142L692.86,89.9l17.221-2.46,7.38,4.92v4.92l14.761,4.92h12.3l2.46-4.92,19.681,19.682,9.841-4.92v-7.381l19.682,4.92,4.92-12.3,17.221,4.92,9.841,24.6-7.381,9.841,2.46,12.3-7.38,9.841,4.92,7.381h7.381l2.46,9.841,7.38,7.381,17.221,2.46-2.46,14.761,9.841,2.46-4.92,7.381,2.46,2.46h-4.92l-7.38,7.381,7.38,4.92-4.92,4.92v7.381h-4.92l2.46,12.3h27.062l2.46-4.92h4.92l14.761,7.381,9.841,12.3,9.841-7.381,19.682,19.682,2.46-7.381h7.381L968.4,291.638l17.221,7.381-2.46,2.46L993,308.859Z" transform="translate(-16252.051 10240.762)" fill="#37a5e5" stroke="#fff" stroke-linecap="round" stroke-linejoin="round" stroke-width="1.5" fill-rule="evenodd"/>
      <path id="Path_555" data-name="Path 555" d="M727.646,577.028l-7.381-7.381-24.6-7.381-9.841,2.46-12.3,12.3h-7.38l-9.841-7.381H646.46L644,562.267l12.3-49.2-2.46-9.841,7.381-2.46v-4.92l7.38-4.92h29.522l27.062-7.381,4.92-9.841-7.381-2.46-14.761-19.682v-7.381l9.841-19.682,14.761-9.841v-9.841l-7.381-7.381-2.46-12.3-9.841-9.841,4.92-12.3,17.221-9.841h12.3v12.3l7.38,7.381h4.92l17.221-14.761v-4.92h7.381l9.841-12.3,2.46-29.522,24.6-7.381,7.38-14.761,7.381-4.92-12.3-34.443,14.761-14.761V217.841h19.681l7.381-2.46,2.46-4.92,12.3-2.46,12.3,7.381-2.46,9.841,4.92,4.92,24.6-2.46,7.38,9.841,4.92-2.46,2.46,12.3,12.3,2.46v4.92l7.381,7.381,17.221-14.761,4.92,7.381,4.92-4.92,4.92,2.46,4.92,4.92v9.841l9.841-2.46,2.46-7.381,9.841,4.92,2.46,9.841,17.221,2.46,2.46,4.92h4.92v7.381l-9.841-2.46v7.381l7.381,12.3-2.46,4.92,7.381,7.381,14.761-7.381,14.761,9.841-2.46,14.761,7.38,7.381,2.46-2.46,4.92,14.761,14.761,2.46,7.381,9.841-4.92,22.142,12.3,4.92,2.46,9.841-4.92,9.841,12.3,12.3v4.92l2.46,2.46,4.92-4.92,7.381,4.92-2.46,2.46,4.92,4.92h4.92l4.92,12.3-4.92,2.46,12.3,14.761,12.3-2.46v4.92l9.841,9.841,9.841-2.46,9.841,12.3,9.841-9.841,9.841,14.761v12.3h-9.841l-4.92,9.841-2.46-2.46-9.841,7.381,7.381,7.38v7.381l-7.381,4.92-2.46,9.841,2.46,24.6-4.92,4.92-7.38-2.46-4.92,14.761-9.841,4.92-2.46,9.841-22.142,24.6,2.46,12.3-12.3,9.841v9.841l4.92,7.381-2.46,7.38-17.221,9.841-24.6,2.46-14.761,14.761-14.761-2.46-29.522,7.381-14.761-9.841-4.92,4.92-24.6-7.381-19.682,2.46-19.682-22.142-2.46,2.46-19.682-4.92-12.3-7.381-7.381,2.46-14.761-14.761H835.895l-9.841,4.92-7.38-2.46-7.381,7.38-12.3-17.221-12.3-2.46-7.381-7.38,2.46-19.682-14.761-29.522-29.522-12.3-2.46,2.46-4.92-4.92Z" transform="translate(-15949.792 10467.09)" fill="#37a5e5" stroke="#fff" stroke-linecap="round" stroke-linejoin="round" stroke-width="1.5" fill-rule="evenodd"/>
    </g>
    <g id="Group_538" data-name="Group 538">
      <path id="Path_477" data-name="Path 477" d="M589,660.46a2.46,2.46,0,1,0,2.46-2.46,2.46,2.46,0,0,0-2.46,2.46" transform="translate(-16030.102 11124.174)" fill="#7fbe73" stroke="rgba(51,136,255,0)" stroke-linecap="round" stroke-linejoin="round" stroke-width="3" fill-rule="evenodd"/>
      <path id="Path_524" data-name="Path 524" d="M844.31,541.46h4.92l4.92,9.841,12.3-2.46v9.841l12.3-4.92-2.46,7.381,7.38,4.92,9.841-2.46,9.841-9.841L925.5,575.9l2.46,17.221,7.38,7.38-2.46,2.46h4.92l7.381,9.841,12.3,2.46v4.92l-12.3,12.3,12.3,2.46,2.46,4.92-4.92,2.46,14.761,19.682-7.38,7.38h-4.92l2.46,2.46L950.1,686.611l-17.221-4.92-4.92,4.92,4.92,7.381-2.46,7.381,7.38,4.92v7.381l-7.38,9.841-7.381-4.92-29.522,2.46-14.761-7.38-9.841,2.46-7.38-7.381v4.92l-2.46-2.46-2.46,4.92h-4.92v4.92l-4.92-4.92-2.46,4.92-14.761-29.522-12.3,12.3-12.3-2.46-17.221,4.92-12.3-4.92-31.982,2.46-12.3-2.46-2.46-4.92-4.92,4.92v-4.92h-4.92L709,686.611l4.92-7.38,22.142-9.841-7.381-4.92,7.381-2.46-2.46-2.46,12.3-14.761,19.682,2.46,9.841-4.92,7.38,4.92,12.3-14.761h29.522v4.92l4.92-2.46-2.46-19.681-27.062-17.221,9.841-4.92-4.92-22.142,17.221-22.142V539l12.3,7.381h7.381v-4.92Z" transform="translate(-15854.88 10950.412)" fill="#7fbe73" stroke="#fff" stroke-linecap="round" stroke-linejoin="round" stroke-width="1.5" fill-rule="evenodd"/>
      <path id="Path_525" data-name="Path 525" d="M589.248,505.3l19.682,9.841,4.92,9.841,7.38-4.92,17.221,9.841,7.381,7.38-2.46,7.381,9.841-2.46,12.3,4.92,14.761,17.221,9.841,2.46v4.92h4.92l19.682,22.142,2.46,22.142h9.841l17.221,9.841,2.46-2.46,27.062,17.221H783.6l4.92,7.381h4.92l-4.92,19.681,4.92,17.221-4.92,4.92-12.3-4.92h-9.841l-4.92,4.92h-24.6l-2.46,14.761-41.823-4.92-19.682,27.062v9.841l-9.841,2.46-29.522-22.142-14.761-2.46-46.744-44.283-31.982-4.92L485.92,630.771l-2.46-2.46,9.841-4.92-9.841-12.3,4.92-2.46L481,601.248v-9.841l4.92-4.92,2.46,2.46,4.92-9.841-2.46-2.46,4.92-2.46v-9.841l14.761-4.92V554.5l2.46,2.46,9.841-14.761,7.381,2.46,2.46-7.381,17.221-9.841-4.92-4.92,7.38-7.381,2.46,2.46,4.92-14.761h4.92V493l22.142,12.3Z" transform="translate(-16187.802 10883.244)" fill="#7fbe73" stroke="#fff" stroke-linecap="round" stroke-linejoin="round" stroke-width="1.5" fill-rule="evenodd"/>
      <path id="Path_526" data-name="Path 526" d="M706.063,607.514h-4.92l-9.841-9.841-12.3-2.46-2.46,2.46h4.92v4.92l-4.92,2.46-4.92,17.221-2.46-4.92-7.38,7.381,4.92,4.92-9.841,4.92-9.841,12.3-7.381-2.46-2.46,7.38-2.46-2.46v4.92l-4.92,4.92-2.46-2.46v4.92l-14.761,7.38v4.92l-4.92,2.46,2.46,9.841-12.3,7.381,4.92,12.3-2.46,7.381,9.841,9.841-4.92,7.381h-4.92l2.46,2.46-12.3-7.381,2.46-19.682-12.3-7.38-12.3-17.221-24.6-4.92-4.92,7.381,4.92,4.92-4.92,7.381-19.682,2.46,2.46-7.381-9.841-7.38,9.841-4.92-2.46-9.841-36.9-44.283-2.46-22.142-9.841-17.221-54.124-12.3L401,560.771l14.761-19.682v-4.92l7.381-2.46,19.682-22.142h4.92l9.841-19.682,19.682-14.761,19.681-24.6L506.788,423l12.3,4.92-4.92,7.38,7.381,9.841,27.062,12.3h7.381l-2.46,2.46,12.3,7.38-2.46,4.92h4.92l2.46,9.841,7.381,4.92,7.38-2.46,2.46,7.381,14.761,7.38,4.92,7.381,9.841,4.92v4.92l14.761,4.92L666.7,553.39l14.761,4.92,14.761,14.761,22.142,4.92-9.841,29.522Z" transform="translate(-16304.617 10781.03)" fill="#7fbe73" stroke="#fff" stroke-linecap="round" stroke-linejoin="round" stroke-width="1.5" fill-rule="evenodd"/>
      <path id="Path_527" data-name="Path 527" d="M748.673,555.744,778.2,570.5l7.381-2.46,2.46,7.381,9.841-9.841h4.92l2.46,7.381h14.761l2.46,7.38,9.841,4.92,4.92,9.841,2.46-2.46,14.761,14.761,9.841,4.92,2.46-2.46,4.92,4.92h14.761l4.92,4.92-9.841,9.841v4.92l22.142,12.3v4.92l9.841,4.92v4.92l-7.38,7.381,9.841,4.92v17.221l7.381,7.38,2.46-2.46-2.46,2.46,9.841,9.841-7.381,2.46,7.381,2.46-2.46,2.46-2.46-2.46-22.142,17.221,9.841,9.841h4.92v4.92l4.92-4.92,4.92,4.92v9.841H901.205l-9.841,9.841-7.38-2.46-2.46,2.46,7.381,14.761L876.6,787l-12.3-2.46-51.664,17.221-12.3-2.46-12.3,4.92H773.275l-24.6-12.3L731.452,769.78l-22.142-9.841-49.2-41.823-19.682-9.841-4.92,4.92-9.841-2.46-24.6-29.522V666.452h24.6l4.92-4.92,24.6,4.92,2.46-12.3-4.92-9.841,4.92-19.681-41.823-22.142-36.9-12.3V570.5l-4.92-4.92,2.46-12.3,7.38-7.381V531.142h4.92v-4.92l7.381-7.38,2.46,2.46,9.841-7.381,2.46,2.46,7.38-7.381L635.5,521.3h4.92l-2.46-2.46,9.841-4.92,14.761,4.92,4.92-4.92,12.3,7.381,9.841-4.92H704.39v4.92l7.381,7.38,7.381-2.46,14.761,14.761v4.92h9.841Z" transform="translate(-16052.005 10906.606)" fill="#7fbe73" stroke="#fff" stroke-linecap="round" stroke-linejoin="round" stroke-width="1.5" fill-rule="evenodd"/>
      <path id="Path_528" data-name="Path 528" d="M858.912,628.062l2.46-2.46,4.92,4.92V625.6h4.92l7.38-7.381,4.92,7.381,2.46-2.46,4.92,4.92h39.363l7.381,31.982-2.46,27.062,4.92,9.841v9.841l-12.3,17.221,12.3,27.062v9.841l-4.92,4.92,2.46,12.3-4.92,4.92v4.92l7.381,7.381-7.381,7.38-12.3-19.682-14.761-2.46-54.124,4.92-36.9-9.841-9.841-17.221H718.682l4.92-9.841-4.92-12.3,4.92-4.92-2.46-2.46,4.92-12.3-9.841-14.761V682.186l-9.841-4.92V647.744L699,630.522h9.841l9.841-9.841,24.6,2.46,7.381-12.3h41.823l7.381,4.92,17.221-4.92,14.761,2.46,12.3-12.3v4.92L858.912,625.6Z" transform="translate(-15869.481 11040.943)" fill="#7fbe73" stroke="#fff" stroke-linecap="round" stroke-linejoin="round" stroke-width="1.5" fill-rule="evenodd"/>
      <path id="Path_530" data-name="Path 530" d="M842.372,488l17.221,4.92,14.761,14.761,17.221,2.46,2.46,9.841h4.92v4.92l7.38,7.381v9.841l-7.38,12.3-2.46-4.92-22.142,2.46,4.92,14.761v24.6l9.841,7.381v12.3l-4.92,9.841h-9.841l-9.841-7.381v9.841l-17.221,22.142,4.92,9.841v14.761l-9.841,4.92h7.381l19.682,14.761,2.46,19.681-2.46,2.46-4.92-4.92h-24.6l-14.761,14.761-7.38-4.92-9.841,4.92-4.92-4.92-2.46,4.92-12.3-2.46-12.3,14.761-14.761-12.3,2.46-12.3-9.841-9.841-2.46,2.46,7.38-14.761-4.92-4.92-2.46,2.46-12.3-14.761-12.3-4.92,2.46-9.841,7.38-7.381-17.221-2.46-24.6-9.841-9.841-12.3,2.46-17.221-7.38-4.92v-4.92h4.92l9.841-14.761,12.3-2.46,2.46-4.92h12.3l7.381-9.841,12.3,2.46,14.761,14.761,24.6-4.92,4.92-4.92v-4.92l-4.92-2.46,17.221-12.3-2.46-9.841,14.761-4.92,2.46-14.761,17.221-17.221v-9.841l7.38-7.381Z" transform="translate(-15897.225 10875.942)" fill="#7fbe73" stroke="#fff" stroke-linecap="round" stroke-linejoin="round" stroke-width="1.5" fill-rule="evenodd"/>
      <path id="Path_531" data-name="Path 531" d="M906.621,546.407H901.7l-7.38,7.381v9.841L877.1,583.31v7.381l-17.221,9.841,2.46,9.841-17.221,12.3,4.92,2.46-4.92,9.841-24.6,4.92-12.3-14.761H793.452l-7.381,9.841-9.841-2.46-17.221,7.381-4.92,9.841-9.841,4.92v4.92l7.38,7.38V676.8l-4.92,7.38v-4.92l-14.761-9.841-2.46-7.38-7.381,2.46-7.381-2.46-2.46-7.381h-4.92L697.5,664.5l-2.46-7.381-7.381,2.46-29.522-14.761,2.46-19.682,14.761-19.682L660.6,598.071l-2.46-12.3-7.381-4.92-7.38-14.761v-9.841l7.38-4.92v-9.841l-7.38-7.381v-9.841L636,516.885l12.3-7.38,4.92-12.3h4.92l9.841-34.443,17.221,2.46,12.3-7.38,4.92-9.841h17.221v7.381l7.381,9.841,19.682,7.381h12.3l9.841,7.38h4.92l14.761-14.761v4.92l7.381,2.46,7.38-7.381,9.841-2.46,2.46,9.841,14.761,4.92,2.46-2.46,19.681,12.3h22.142V497.2l12.3,7.381,4.92,12.3-2.46,9.841h9.841l7.38,7.38-2.46,2.46,4.92,9.841Z" transform="translate(-15961.473 10817.535)" fill="#7fbe73" stroke="#fff" stroke-linecap="round" stroke-linejoin="round" stroke-width="1.5" fill-rule="evenodd"/>
      <path id="Path_532" data-name="Path 532" d="M983.895,647.9l-2.46,12.3-12.3,12.3v4.92l-9.841,9.841-2.46-2.46v9.841l4.92,4.92-2.46,4.92,4.92,4.92,2.46-2.46V746.31l7.38,4.92,2.46,9.841-103.328-4.92,7.38,7.381v4.92l-7.38,7.381,4.92,9.841h4.92v4.92l-17.221,24.6,2.46,2.46-17.221,12.3H831.363l-9.841-9.841V805.355l-22.142-17.221,4.92-9.841-7.381-4.92v-4.92l4.92-4.92-2.46-12.3,4.92-4.92V736.47L792,709.408l12.3-17.221v-9.841l-4.92-7.381,2.46-29.522L794.46,613.46l12.3,4.92,7.38-4.92,12.3,2.46,7.38-4.92h14.761l17.221,14.761,9.841-4.92,4.92,4.92,7.381-2.46,12.3,9.841,31.982-2.46,17.221,4.92,9.841,7.381h12.3l7.381,7.38Z" transform="translate(-15733.684 11055.545)" fill="#7fbe73" stroke="#fff" stroke-linecap="round" stroke-linejoin="round" stroke-width="1.5" fill-rule="evenodd"/>
      <path id="Path_533" data-name="Path 533" d="M754.487,385.46l7.381,7.381h12.3l12.3,17.221h4.92l2.46-4.92h29.522l9.841-4.92,7.381,4.92,27.062-2.46,14.761,14.761,7.381-2.46,9.841,7.381,22.142,4.92,2.46-2.46,17.221,22.142h14.761l2.46,24.6-4.92,9.841-9.841,2.46v19.682l-9.841-2.46-17.221,9.841-7.38-4.92H879.957v4.92l-7.381,2.46-2.46,9.841,14.761,14.761-2.46,9.841-2.46,2.46-22.142-14.761-4.92,4.92-2.46,19.682-14.761,2.46,7.381,7.381v4.92l9.841,7.381-2.46,2.46-34.443-2.46-19.681-12.3-2.46,2.46-14.761-4.92-2.46-9.841-9.841,2.46-7.38,7.381-4.92-2.46v-4.92h-4.92l-12.3,14.761-19.682-9.841-4.92,2.46-24.6-9.841-7.381-17.221,9.841-9.841,12.3-2.46V513.39l-4.92,2.46-9.841-4.92,2.46-4.92-14.761,2.46L661,498.629l2.46-7.381,4.92-4.92,17.221,9.841h9.841l7.381-9.841h9.841v-9.841l7.381-2.46v-9.841L710.2,446.965H697.9l-2.46-12.3L722.5,412.522l-4.92-7.381L732.345,383h4.92l4.92,7.381Z" transform="translate(-15924.969 10722.623)" fill="#7fbe73" stroke="#fff" stroke-linecap="round" stroke-linejoin="round" stroke-width="1.5" fill-rule="evenodd"/>
      <path id="Path_534" data-name="Path 534" d="M913.124,640.761l7.381,2.46,7.381-7.381,12.3,2.46,4.92,4.92,2.46-4.92,17.221,2.46v12.3l-4.92,14.761-4.92,2.46,24.6,14.761-4.92,4.92,2.46,7.38,2.46,2.46,2.46-7.38,14.761,17.221-2.46,9.841,9.841,2.46-9.841,7.38,4.92,4.92,2.46,19.682-9.841,4.92,2.46,19.682,14.761,2.46-9.841,14.761-9.841,4.92L876.221,736.708l-7.38-14.761v-9.841l-4.92-4.92,4.92-4.92V685.045H861.46l2.46-4.92-4.92-7.38V662.9l2.46,2.46,9.841-9.841V650.6l14.761-12.3,2.46-12.3h4.92l4.92,7.38Z" transform="translate(-15635.852 11077.448)" fill="#7fbe73" stroke="#fff" stroke-linecap="round" stroke-linejoin="round" stroke-width="1.5" fill-rule="evenodd"/>
      <path id="Path_556" data-name="Path 556" d="M945.974,676.753l-4.92-2.46-9.841,4.92-14.761-14.761-14.761,7.381,2.46,4.92-4.92,7.38-27.062-4.92,12.3-12.3v-4.92l-12.3-2.46-7.381-9.841h-4.92l2.46-2.46-7.38-7.38-2.46-17.221-17.221-19.682-4.92-2.46-14.761,14.761-12.3-7.38,2.46-7.381-12.3,4.92v-9.841l-9.841,2.46-7.381-9.841H771.3V570.965l2.46,2.46L761.46,556.2l2.46-14.761L759,524.221l22.142-2.46,2.46,4.92,7.38-12.3,17.221,2.46L818.045,507l4.92,4.92,7.38-4.92,41.823,41.823,12.3-4.92,4.92,4.92h9.841l7.381-4.92,14.761,17.221,2.46-2.46v4.92l14.761,17.221,24.6-2.46v7.38h9.841l2.46-4.92,12.3,4.92,7.381-2.46,12.3,19.682-9.841,19.682,14.761,7.38,7.38,12.3-4.92,7.38h-4.92l-2.46,7.381-22.142,4.92L963.2,654.611l-14.761,19.682Z" transform="translate(-15781.87 10903.686)" fill="#7fbe73" stroke="#fff" stroke-linecap="round" stroke-linejoin="round" stroke-width="1.5" fill-rule="evenodd"/>
    </g>
    <g id="Group_537" data-name="Group 537">
      <path id="Path_480" data-name="Path 480" d="M1322,475.46a2.46,2.46,0,1,0,2.46-2.46,2.46,2.46,0,0,0-2.46,2.46" transform="translate(-14959.784 10854.039)" fill="#d69a58" stroke="rgba(51,136,255,0)" stroke-linecap="round" stroke-linejoin="round" stroke-width="3" fill-rule="evenodd"/>
      <path id="Path_481" data-name="Path 481" d="M1055,340.46a2.46,2.46,0,1,0,2.46-2.46,2.46,2.46,0,0,0-2.46,2.46" transform="translate(-15349.654 10656.914)" fill="#d69a58" stroke="rgba(51,136,255,0)" stroke-linecap="round" stroke-linejoin="round" stroke-width="3" fill-rule="evenodd"/>
      <path id="Path_517" data-name="Path 517" d="M835.328,433.46l-2.46,44.283,12.3,9.841,2.46,14.761,14.761,2.46,29.522-9.841,12.3,4.92-2.46,2.46,7.381,2.46,4.92,9.841,7.38,2.46-2.46,12.3h-9.841l9.841,14.761-7.38,24.6,14.761,7.38,12.3-9.841h12.3l7.381,7.38H973.1l7.381,9.841h4.92v4.92l7.38,2.46H1010l17.221,7.381,9.841-4.92,14.761,4.92v4.92h4.92l7.38,24.6,9.841,2.46,14.761,12.3v9.841l-14.761,14.761V686.86l-4.92,7.38h-4.92l-12.3,19.682-4.92,2.46-2.46-7.381h-4.92l2.46-4.92-7.381-9.841-7.381,2.46-9.841-4.92-12.3,4.92-4.92-2.46v-4.92l-22.142,2.46-14.761-17.221v-4.92l-2.46,2.46-14.761-17.221-7.381,4.92h-9.841l-4.92-4.92-9.841,4.92-17.221-17.221h-4.92l-9.841-14.761-12.3-9.841-7.38,7.38-4.92-7.38-9.841,9.841-14.761-2.46-9.841-22.142h-4.92l-4.92-9.841-24.6-7.38-2.46-9.841-19.682-4.92v-12.3l-7.38-7.38h-9.841V534.328l-14.761-12.3v-9.841h14.761l-9.841-7.381v-4.92L732,492.5h9.841l7.38-4.92V467.9l4.92-2.46,17.221,12.3h7.38l2.46-12.3-9.841-4.92-4.92-7.381,9.841-17.221h34.443l2.46,4.92L830.407,431Z" transform="translate(-15821.295 10792.712)" fill="#d69a58" stroke="#fff" stroke-linecap="round" stroke-linejoin="round" stroke-width="1.5" fill-rule="evenodd"/>
      <path id="Path_518" data-name="Path 518" d="M1074.5,862.135l-7.381-9.841V832.612l-14.761,2.46-2.46-7.381-17.221-9.841-2.46,2.46v-4.92H1015.46L1013,800.63l17.221-12.3,2.46-19.682,12.3-12.3-4.92-9.841h14.761l7.38-7.38h4.92l7.381-7.381-2.46-2.46,27.062-19.682v-4.92l9.841-9.841V672.7l7.381-14.761-2.46-17.221,12.3-24.6h4.92l4.92-9.841-9.841-9.841,2.46-2.46-17.221-24.6-7.381-7.381-9.841-2.46-14.761-17.221,2.46-12.3-7.381-14.761,2.46-4.92-7.381-2.46v-36.9l-7.381-9.841h-4.92l2.46-4.92-4.92-12.3,4.92-4.92-14.761-9.841-2.46-9.841,7.381-7.381h19.681l4.92-4.92,7.381,9.841,24.6-2.46,9.841,9.841v9.841h4.92l2.46,7.38,14.761,7.381V468.5h7.381l4.92,7.38h9.841l29.522,12.3,19.681,12.3,4.92-7.381,2.46,2.46,12.3-7.381h17.221l2.46,7.381,9.841-2.46,9.841-4.92-2.46-7.38,27.062-31.982,7.38-4.92,7.381,4.92,14.761-7.381,7.38,2.46,14.761,19.682,7.381-2.46,2.46,7.381,7.381,2.46-9.841,14.761,4.92,14.761v19.682h-9.841l-4.92,17.221-19.681,9.841-4.92,14.761,7.381,2.46v19.682l4.92,4.92-7.38,24.6h-14.761L1291,628.417l2.46,2.46-4.92,4.92,2.46,4.92-4.92,17.221-9.841,2.46-4.92,7.381-2.46-2.46-12.3,17.221,4.92,9.841-9.841,24.6,2.46,7.381-14.761,4.92-4.92,9.841h-9.841l-12.3-9.841-9.841,2.46-14.761,39.363,2.46,14.761-4.92,4.92-2.46-2.46-4.92,9.841-22.142,19.682-2.46,19.682,22.142,46.744-2.46,2.46-4.92-4.92-14.761,12.3-4.92-4.92-2.46,2.46-14.761-4.92-7.38-4.92v-9.841l-4.92-7.381h-4.92l2.46-2.46h-4.92l-7.381-9.841h-14.761l-9.841,9.841Z" transform="translate(-15410.982 10757.668)" fill="#d69a58" stroke="#fff" stroke-linecap="round" stroke-linejoin="round" stroke-width="1.5" fill-rule="evenodd"/>
      <path id="Path_519" data-name="Path 519" d="M1136.4,517.186l-12.3,7.381v7.38l-14.761,19.682,2.46,12.3-12.3,34.443,12.3,19.682-2.46,22.142-9.841,9.841,14.761,7.381-2.46,2.46,4.92,19.682-4.92,4.92,4.92,4.92v9.841H1087.2l-7.381-4.92-17.221-2.46-17.221,17.221-22.142-14.761-9.841-14.761-9.841-4.92-17.221,2.46-4.92-4.92v-9.841l-14.761-12.3H951.885l-9.841-9.841H932.2l-7.381-7.381,9.841-17.221h-12.3l-12.3-7.38,4.92-4.92-7.381-4.92,7.381-7.38-7.381-2.46-24.6-36.9v-4.92h24.6v-4.92l-7.38,2.46-4.92-7.381,9.841-29.522,7.38-2.46,4.92-9.841,22.142-19.682-9.841-12.3-2.46-9.841,2.46-4.92L956.806,436l31.982,7.381,7.381-2.46,14.761,9.841h9.841l19.682,9.841,12.3,14.761,24.6-2.46,9.841,14.761,12.3,4.92,2.46,7.38,27.062,4.92,2.46-2.46,7.381,7.381-2.46,4.92Z" transform="translate(-15600.807 10800.013)" fill="#d69a58" stroke="#fff" stroke-linecap="round" stroke-linejoin="round" stroke-width="1.5" fill-rule="evenodd"/>
      <path id="Path_520" data-name="Path 520" d="M1176.585,510.877l-19.681-4.92-4.92,9.841-7.381,4.92-12.3-7.381H1120l-7.381,9.841,2.46,7.381-7.381,7.381-7.38-2.46-4.92,12.3-9.841,4.92v4.92l-4.92,2.46-9.841-9.841h-9.841l-4.92-9.841-7.381,2.46V565l-19.681,7.381-2.46,12.3-12.3,12.3-9.841-2.46-24.6,19.682H960.089l-22.142,39.363h-4.92l-2.46,14.761-7.381,9.841h-7.381l-22.142-12.3-7.381,2.46-4.92-4.92,2.46-2.46-4.92-4.92V636.347l-9.841-7.381-4.92-12.3,12.3-29.522V577.3l-7.381-9.841-22.142-4.92L842,550.24V535.479h9.841l2.46-4.92-2.46-14.761,22.142-22.142,2.46-9.841h4.92l7.381-7.381,2.46-9.841h7.38l4.92-4.92-2.46-22.142,4.92-14.761h4.92V414.93l-7.381-7.381,9.841-7.381,2.46,2.46,4.92-9.841h9.841v-9.841l-7.381-7.381,2.46-7.381-4.92-2.46v-12.3l19.681-12.3,4.92-9.841,22.142,2.46,4.92-4.92h9.841l4.92-4.92-4.92-7.381,9.841-14.761,14.761,2.46,4.92-7.381,19.682-7.381,17.221,4.92L1063.417,287l12.3,9.841-4.92,4.92,14.761,7.381,7.381-7.381,12.3,7.381h4.92l2.46-4.92,14.761,7.381v19.682l36.9,2.46v9.841l-4.92,7.381-2.46-2.46-7.381,7.381v19.682l2.46,12.3,12.3,9.841-4.92,14.761v19.682l19.681-2.46,9.841,14.761-4.92,7.381v17.221l-4.92,4.92-4.92,22.142,2.46,12.3Z" transform="translate(-15660.675 10582.445)" fill="#d69a58" stroke="#fff" stroke-linecap="round" stroke-linejoin="round" stroke-width="1.5" fill-rule="evenodd"/>
      <path id="Path_521" data-name="Path 521" d="M1080.523,448.2l22.142,14.761,14.761,24.6-2.46,4.92-27.062,12.3,12.3,24.6-22.142,19.682-4.92,9.841-7.38,2.46-9.841,27.062,7.381,9.841h4.92l-2.46,4.92-22.142-4.92-7.381,2.46-9.841,24.6h-4.92l-12.3-12.3v-4.92l-14.761-4.92-12.3,9.841v17.221l14.761,12.3-2.46,7.381L979.656,640.1l-12.3,7.381-2.46-4.92-12.3-4.92-7.381,2.46-19.681-4.92v-4.92h-4.92l-7.381-9.841H898.47l-12.3-7.38-12.3,2.46-7.38,7.38-9.841-4.92-2.46-14.761,7.38-12.3-12.3-12.3,7.38-2.46,4.92-12.3-7.38-2.46v-4.92l-12.3-7.38,2.46-2.46-17.221-4.92-22.142,9.841-17.221-2.46L785.3,534.31,773,524.47l2.46-41.823,4.92-2.46,2.46-12.3-2.46-7.38,12.3-4.92,2.46-7.381-2.46-27.062,19.682,2.46,7.381,4.92,9.841-4.92,14.761,9.841h9.841l19.681-7.381,14.761,2.46,7.381-4.92,4.92-9.841,27.062-2.46L947.673,399l19.681,4.92,7.381,4.92L977.2,423.6l-9.841,17.221,2.46,7.38-4.92,2.46,7.38,17.221,7.381,4.92v14.761l4.92,9.841-2.46,2.46,4.92,4.92,9.841-2.46,19.681,12.3h4.92l9.841-9.841,2.46-14.761h4.92l7.381-14.761,9.841-7.381-2.46-4.92,7.381-9.841,19.681-2.46Z" transform="translate(-15761.428 10745.986)" fill="#d69a58" stroke="#fff" stroke-linecap="round" stroke-linejoin="round" stroke-width="1.5" fill-rule="evenodd"/>
      <path id="Path_522" data-name="Path 522" d="M1153.8,553.221l14.761,19.681-7.381,7.381-2.46,19.682L1141.5,614.726v7.38l9.841,7.381,7.38-2.46v4.92l2.46-2.46,9.841,9.841,9.841,2.46v4.92l14.761-2.46V663.93l7.381,9.841v9.841l-4.92,4.92-7.381-2.46-4.92,9.841-19.681-4.92h-12.3l-4.92,4.92-2.46,12.3,4.92,7.381,2.46-2.46,9.841,7.381v7.38l-4.92-4.92-9.841,9.841h-4.92l-4.92-9.841-17.221-9.841-7.38,14.761-9.841,4.92-9.841-9.841,2.46-4.92-9.841-14.761,2.46-7.381-7.38-12.3-7.381,2.46-14.761-7.381-4.92,4.92-12.3-7.381h-12.3v4.92l-2.46-2.46-4.92,4.92v-4.92l-12.3,2.46-2.46-7.381-2.46,4.92-2.46-7.38-4.92,4.92-2.46-7.38-12.3,2.46-4.92,7.38-4.92-4.92v4.92l-9.841-7.38v4.92h-7.381l-4.92-2.46v-4.92H932.381L925,661.47l19.682-14.761-4.92-19.682,4.92-9.841V602.425l22.142-9.841-2.46-4.92-9.841-2.46-2.46-7.381-4.92,4.92H937.3l-9.841-12.3,12.3-7.381-4.92-2.46,9.841-9.841,2.46,2.46,4.92-9.841,14.761,4.92v4.92l2.46-2.46,7.381,9.841,2.46-2.46,4.92,4.92,14.761-17.221,19.681,2.46,7.381,4.92,27.062-2.46,4.92,9.841h4.92l49.2-24.6h19.681Z" transform="translate(-15539.479 10946.031)" fill="#d69a58" stroke="#fff" stroke-linecap="round" stroke-linejoin="round" stroke-width="1.5" fill-rule="evenodd"/>
      <path id="Path_523" data-name="Path 523" d="M976.408,806.5l-4.92-4.92,2.46-4.92-7.381-14.761,9.841-4.92-9.841-9.841,2.46-7.38-14.761-14.761-2.46,7.38-4.92-7.38,4.92-4.92-2.46-7.381-19.681-9.841,9.841-24.6-2.46-4.92-17.221-2.46-2.46,4.92-4.92-4.92-12.3-2.46-7.381,7.381-7.381-2.46,4.92-9.841L878,663.806l14.761,4.92,2.46-2.46,4.92,4.92,9.841-7.381,14.761-2.46,12.3,7.38,17.221,2.46V656.425h24.6l9.841,4.92,12.3-9.841h14.761l4.92-2.46,2.46-17.221,12.3-19.682-2.46-12.3,4.92-4.92,9.841,4.92,9.841-9.841h9.841v7.38l4.92-4.92,2.46,7.38,4.92-4.92V602.3l12.3-2.46v4.92l4.92-4.92,2.46,2.46v-4.92h12.3l4.92,7.381,2.46-4.92,4.92,4.92,2.46-4.92,14.761,7.381,12.3-2.46,4.92,9.841L1156,629.363l7.381,2.46,4.92,19.682h12.3l9.841-17.221,19.682,12.3,4.92,27.062-19.682,9.841-19.681-9.841L1156,690.868l-19.681,9.841-2.46-2.46-14.761,4.92-36.9,29.522-2.46,9.841-7.381,7.38-17.221-4.92-2.46,4.92h-9.841l-4.92,7.381-29.522-7.381-4.92,4.92-12.3-2.46-4.92,14.761,7.381,2.46,7.381-7.38,7.381,4.92v4.92l-12.3,7.381,2.46,12.3-4.92,9.841-12.3,4.92Z" transform="translate(-15608.107 11024.882)" fill="#d69a58" stroke="#fff" stroke-linecap="round" stroke-linejoin="round" stroke-width="1.5" fill-rule="evenodd"/>
      <path id="Path_529" data-name="Path 529" d="M890.487,583.3l2.46,4.92,7.38-4.92,9.841,7.38,7.381-2.46,2.46-7.38,9.841,7.38V583.3l9.841,4.92,7.381-7.38,4.92,2.46-2.46,2.46h9.841l2.46,4.92,7.38-4.92,12.3,17.221,12.3-14.761h4.92v4.92l14.761-2.46,12.3,9.841,12.3-2.46,14.761,17.221,7.381-2.46,12.3,4.92-2.46-7.381H1075v4.92l9.841-7.381h7.381l14.761,9.841,4.92-4.92,7.381,4.92,9.841-2.46,2.46,4.92,7.38-2.46,2.46,7.38,9.841,2.46V620.2l2.46,2.46-4.92,9.841,4.92,4.92-12.3,19.681-4.92,19.682-17.221,2.46-12.3,9.841-9.841-4.92h-24.6v12.3H1057.78l-14.761-7.38-24.6,9.841-4.92-4.92-2.46,2.46-12.3-4.92-2.46,2.46,12.3,17.221-4.92,9.841-14.761-7.381-2.46-7.38-14.761,2.46-12.3-9.841-4.92,2.46-24.6-12.3-19.682-2.46-2.46,4.92H892.948l-9.841-9.841-12.3,2.46-2.46-4.92-9.841,4.92-17.221-14.761-31.982,4.92V659.567l-7.38-2.46,2.46-7.38L797,639.885l7.38-4.92,17.221,4.92,9.841-14.761-2.46-2.46h4.92l7.38-7.38L826.522,595.6l4.92-2.46v-4.92l12.3,2.46,4.92-4.92V575.92l12.3-4.92,14.761,14.761,9.841-4.92,2.46,2.46Z" transform="translate(-15726.383 10997.139)" fill="#d69a58" stroke="#fff" stroke-linecap="round" stroke-linejoin="round" stroke-width="1.5" fill-rule="evenodd"/>
      <path id="Path_552" data-name="Path 552" d="M1094.815,380.92l14.761-2.46,14.761,12.3,14.761,4.92h4.92l2.46-4.92,7.381,7.381h14.761l7.381,7.381-2.46,7.381,14.761,4.92-2.46,9.841,7.38,4.92-4.92,9.841,24.6,19.681-2.46,7.381,9.841,12.3,7.38,2.46-4.92,9.841,4.92,4.92-2.46,4.92,7.381,4.92,2.46,7.38v14.761l4.92,7.38-2.46,12.3,2.46,4.92h4.92l-2.46,4.92,4.92,9.841v19.682l-4.92,4.92-29.522,4.92-12.3-14.761V580.2l-14.761-4.92L1171.081,604.8l-9.841-2.46-36.9,7.381-9.841-4.92,2.46-7.38-7.381-7.381-2.46,2.46-27.062-4.92-2.46-7.38-12.3-4.92-9.841-12.3H1033.31l-14.761-14.761h-4.92l-14.761-12.3-9.841,2.46-12.3-9.841-9.841,2.46-29.522-7.381-9.841-19.682L898,481.788l24.6-17.221,12.3,2.46,9.841-12.3,4.92-14.761,17.221-4.92V412.9h9.841l2.46,7.381h9.841l9.841,9.841,4.92-7.381,9.841-4.92,2.46-12.3,9.841,2.46,7.381-7.381-2.46-7.381,7.381-9.841h12.3l12.3,7.381,12.3-14.761,17.221,4.92Z" transform="translate(-15578.904 10712.402)" fill="#d69a58" stroke="#fff" stroke-linecap="round" stroke-linejoin="round" stroke-width="1.5" fill-rule="evenodd"/>
      <path id="Path_557" data-name="Path 557" d="M918.5,482.46,938.186,516.9l14.761,9.841-7.381,7.38,7.381,4.92-4.92,4.92,24.6,9.841-9.841,14.761,4.92,4.92-2.46-2.46-7.381,12.3-14.761,4.92,4.92,9.841-2.46,9.841h-12.3l-9.841,9.841-2.46,4.92,9.841,9.841-9.841,4.92,2.46,14.761-7.381,7.38-4.92,14.761H891.443l-4.92,2.46v4.92l-4.92-4.92-4.92,2.46-12.3-12.3H857V652.213l17.221-17.221v-4.92l14.761-9.841v-12.3l4.92-9.841-2.46-2.46L906.2,580.868v-9.841l-27.062-19.682-4.92-24.6-12.3-14.761-2.46-14.761,12.3-12.3,12.3,4.92,14.761,17.221h4.92l7.38-22.142L918.5,480Z" transform="translate(-15638.771 10864.262)" fill="#d69a58" stroke="#fff" stroke-linecap="round" stroke-linejoin="round" stroke-width="1.5" fill-rule="evenodd"/>
      <path id="Path_558" data-name="Path 558" d="M999.833,517l12.3,4.92,9.841,9.841h14.761l14.761,14.761,4.92,12.3,19.682-2.46,9.841,4.92-2.46,17.221h-7.38l-9.841,9.841,2.46,2.46-9.841,4.92,12.3,14.761,9.841-4.92,2.46,7.381,14.761,4.92-2.46,4.92-19.681,7.381V644.93l-4.92,4.92v12.3l4.92,9.841-7.381,9.841h-4.92v4.92h-7.381l2.46,2.46-7.381,7.381-14.761-9.841-12.3,2.46-4.92,4.92v-4.92h-4.92l2.46,7.381h-4.92l-4.92-4.92-9.841,2.46-14.761-17.221-4.92-2.46v4.92h-7.38l-12.3-9.841-12.3,2.46-4.92-2.46,2.46-2.46h-4.92l-12.3,14.761-4.92-9.841h-4.92l2.46-4.92-4.92-2.46-7.38,4.92-4.92-4.92h-7.381v-4.92l-14.761,7.38-4.92-7.38-2.46,7.38-4.92-7.38-4.92,2.46v4.92l-4.92-2.46-2.46,4.92L835,664.611l17.221-24.6L871.9,647.39l22.142-4.92,14.761-12.3v-7.381l9.841,4.92,2.46-7.381h22.142l7.381-7.38-4.92-2.46,2.46-7.381h4.92l2.46-4.92-2.46-14.761,9.841-4.92-9.841-9.841,2.46-7.38,9.841-7.381,12.3,2.46,2.46-12.3-4.92-9.841,24.6-14.761Z" transform="translate(-15670.896 10918.288)" fill="#d69a58" stroke="#fff" stroke-linecap="round" stroke-linejoin="round" stroke-width="1.5" fill-rule="evenodd"/>
      <path id="Path_559" data-name="Path 559" d="M1140.753,471.761l17.221,17.221,14.761,4.92,17.221,27.062-2.46,2.46,9.841,9.841L1175.2,567.708l2.46,14.761-7.381,17.221,2.46,17.221-12.3,12.3-2.46,9.841-17.221,14.761h-4.92v4.92L1116.151,673.5l-14.761-2.46,4.92,9.841-4.92,7.38-4.92-9.841-22.142-22.142-9.841-4.92h-19.681l-4.92,4.92-7.381-2.46-22.142,17.221-19.682,7.381-4.92-17.221,2.46-2.46-4.92-4.92,4.92-4.92-4.92-19.682,2.46-2.46L971,616.912l9.841-4.92,2.46-24.6L971,570.169l12.3-34.443-2.46-14.761L995.6,501.283V493.9l12.3-7.381,9.841,4.92,14.761-4.92,31.982-2.46,9.841-9.841,2.46-12.3,7.381-4.92,22.142,24.6,19.681-4.92,2.46,2.46,9.841-4.92Z" transform="translate(-15472.311 10830.677)" fill="#d69a58" stroke="#fff" stroke-linecap="round" stroke-linejoin="round" stroke-width="1.5" fill-rule="evenodd"/>
    </g>
  </g>
</svg>
